<?xml version="1.0" standalone="no"?>
<!DOCTYPE svg PUBLIC "-//W3C//DTD SVG 20010904//EN"
 "http://www.w3.org/TR/2001/REC-SVG-20010904/DTD/svg10.dtd">
<svg version="1.0" xmlns="http://www.w3.org/2000/svg"
 width="2177.000000pt" height="1270.000000pt" viewBox="0 0 2177.000000 1270.000000"
 preserveAspectRatio="xMidYMid meet">

<g transform="translate(0.000000,1270.000000) scale(0.100000,-0.100000)"
fill="#000000" stroke="none">
<path d="M16333 12313 c-7 -2 -13 -21 -13 -40 0 -48 30 -115 48 -108 7 3 18 5
23 5 12 0 12 92 -1 124 -9 25 -28 31 -57 19z"/>
<path d="M12738 12184 c-37 -11 -15 -21 60 -28 94 -9 162 -24 183 -42 8 -8 25
-14 38 -14 14 0 29 -12 42 -35 12 -19 32 -38 44 -41 13 -3 26 -12 29 -20 3 -8
12 -14 20 -14 8 0 32 -15 52 -34 58 -53 80 -63 101 -43 24 21 53 5 53 -30 0
-14 5 -43 12 -64 13 -45 11 -49 -27 -53 -15 -2 -31 -9 -35 -16 -6 -10 -14 -8
-36 8 -16 11 -38 29 -48 41 -27 29 -39 26 -31 -8 4 -21 2 -30 -10 -35 -12 -4
-14 -10 -5 -25 5 -11 10 -29 10 -39 0 -16 -5 -19 -21 -15 -18 5 -20 3 -14 -17
9 -30 -7 -39 -59 -33 -56 6 -116 34 -116 55 0 9 8 30 17 46 17 29 17 31 -1 51
-19 21 -19 21 6 21 14 0 41 7 60 14 33 14 35 18 36 63 0 26 -5 54 -10 61 -8 9
-8 16 0 24 9 9 12 8 12 -6 0 -9 6 -23 13 -30 12 -12 87 -38 87 -30 0 11 -75
70 -99 78 -14 5 -34 20 -44 33 -10 12 -26 23 -35 23 -10 0 -29 11 -44 25 -30
28 -48 32 -48 11 0 -24 -16 -27 -36 -7 -29 27 -62 31 -254 37 -96 2 -178 8
-183 13 -5 5 -23 5 -40 1 -52 -13 -171 -52 -182 -59 -5 -4 -30 -13 -55 -20
-210 -61 -500 -334 -642 -606 -74 -144 -131 -300 -178 -490 -12 -49 -27 -112
-35 -140 -7 -27 -23 -97 -34 -155 -12 -58 -29 -135 -37 -171 -8 -36 -16 -100
-19 -142 -2 -42 -8 -84 -13 -94 -9 -16 -14 -46 -36 -193 -18 -124 -67 -325
-102 -423 -13 -38 -24 -77 -24 -88 0 -18 -19 -64 -48 -114 -24 -43 -72 -150
-72 -163 0 -26 -146 -257 -201 -317 -20 -22 -41 -50 -48 -62 -6 -12 -34 -49
-61 -82 -28 -33 -50 -63 -50 -66 0 -18 36 6 110 75 46 44 89 80 96 80 6 0 42
23 80 50 86 62 125 66 200 19 59 -38 145 -69 191 -69 19 0 44 -5 55 -11 29
-15 78 -60 78 -71 0 -11 29 -42 34 -37 2 2 0 26 -4 52 -6 44 -5 48 11 44 11
-3 16 -1 13 5 -11 17 38 -2 83 -33 23 -16 49 -29 58 -29 11 0 15 -5 11 -16 -3
-8 -2 -13 3 -10 5 3 11 28 13 56 4 39 11 54 32 71 14 11 26 26 26 33 0 7 9 25
20 39 11 14 20 38 20 54 0 30 -26 130 -39 148 -4 6 -13 28 -20 50 -12 38 -21
59 -78 184 -96 210 -186 600 -185 803 1 139 44 235 103 226 14 -2 33 6 48 20
25 23 104 32 116 12 3 -5 14 -10 25 -10 26 0 34 -30 13 -46 -16 -12 -9 -13 50
-14 61 0 70 2 74 20 3 11 13 20 23 20 25 0 41 24 51 75 7 39 5 52 -16 91 -14
26 -44 61 -67 78 -41 30 -44 30 -140 28 -104 -2 -138 7 -138 37 0 45 30 47
140 11 67 -22 199 -33 201 -16 5 45 -27 80 -108 117 -35 16 -69 29 -76 29 -7
0 -21 6 -31 13 -16 12 -17 17 -6 37 37 69 210 232 288 271 34 17 62 35 62 40
0 5 8 9 18 9 9 0 39 11 66 25 27 14 62 25 76 25 15 0 33 7 40 15 7 8 18 15 24
15 7 0 28 8 48 18 20 11 58 24 85 31 108 27 129 33 146 42 10 5 63 14 119 19
87 9 103 8 111 -5 4 -8 14 -15 22 -15 24 0 45 -30 39 -55 -4 -16 0 -30 10 -41
13 -13 15 -28 10 -82 -4 -37 -11 -68 -15 -70 -5 -2 -4 -11 0 -20 5 -9 19 -41
32 -70 13 -29 28 -56 35 -60 14 -8 29 -52 18 -52 -4 0 -20 12 -36 27 -15 14
-30 24 -33 22 -2 -3 15 -38 39 -77 25 -39 40 -74 35 -77 -22 -14 3 -91 33
-101 10 -3 27 -18 38 -35 12 -16 27 -29 35 -29 15 0 59 -36 130 -107 29 -29
59 -53 66 -53 12 0 69 -155 69 -189 0 -7 7 -23 16 -36 15 -23 15 -25 0 -25
-14 0 -16 -7 -10 -37 8 -48 6 -45 49 -68 33 -17 38 -18 46 -3 6 10 17 14 30
11 16 -5 20 -12 17 -34 -5 -30 4 -35 54 -30 38 4 54 -86 23 -133 -25 -37 -8
-53 33 -32 17 9 34 20 37 26 3 5 22 10 41 10 19 0 49 7 65 16 17 8 33 13 36
11 7 -8 -40 -77 -53 -77 -18 0 -44 -35 -44 -59 l0 -22 22 21 c33 30 36 4 4
-29 -14 -15 -26 -34 -26 -43 0 -9 -19 -37 -42 -62 l-43 -45 -45 12 c-25 8 -57
19 -71 26 l-26 13 16 46 c18 51 36 54 36 7 0 -32 11 -55 26 -55 5 0 9 10 9 23
0 13 14 36 30 52 37 35 38 55 5 55 -14 0 -34 5 -45 12 -41 26 -80 -21 -110
-131 -12 -44 -66 -151 -124 -246 -75 -123 -75 -121 -44 -310 8 -52 8 -108 0
-218 -11 -138 -14 -154 -47 -223 -39 -80 -61 -106 -145 -171 -88 -68 -140
-119 -140 -136 0 -11 -8 -17 -25 -17 -25 0 -25 -1 -19 -57 8 -66 12 -76 21
-45 3 13 13 22 25 22 16 0 18 -5 12 -35 -10 -57 -10 -67 6 -75 82 -40 107 -50
123 -50 13 0 17 -9 17 -40 0 -33 3 -40 20 -40 17 0 20 -7 20 -40 0 -28 -4 -40
-15 -40 -16 0 -37 -63 -28 -86 4 -10 -2 -17 -16 -21 -17 -4 -21 -13 -21 -47 0
-25 -8 -51 -20 -66 -11 -14 -20 -37 -20 -52 0 -21 -5 -28 -20 -28 -11 0 -20
-4 -20 -10 0 -5 9 -10 20 -10 17 0 20 -7 20 -40 0 -22 -4 -40 -10 -40 -5 0
-10 -9 -10 -21 0 -11 -8 -33 -19 -47 -10 -15 -21 -40 -25 -57 -11 -44 -34 -75
-56 -75 -10 0 -25 -8 -32 -19 -7 -10 -22 -20 -33 -22 -11 -3 -29 -21 -40 -42
-14 -26 -27 -37 -44 -37 -14 0 -21 -5 -18 -13 2 -6 -1 -18 -8 -24 -14 -13 -26
-4 -38 27 -5 13 -6 13 -6 0 -1 -9 19 -76 43 -150 24 -74 47 -150 50 -168 8
-33 32 -43 42 -17 11 28 76 58 138 64 l61 6 18 65 c66 237 114 421 147 570 12
52 30 131 41 175 47 193 67 343 79 565 16 319 45 530 74 530 7 0 17 -26 25
-61 8 -41 20 -69 37 -84 13 -12 24 -27 24 -34 0 -6 4 -11 8 -11 10 0 28 -51
36 -101 8 -43 30 -68 40 -44 7 19 45 20 52 0 4 -10 20 -15 44 -15 49 0 140
-21 140 -32 0 -13 86 -9 132 6 24 8 77 18 118 21 87 8 127 23 169 66 34 34 38
55 16 85 -20 27 -19 71 3 83 27 14 47 82 33 109 -17 31 -14 109 4 116 10 4 13
14 9 36 -6 26 -4 30 16 30 21 0 22 2 15 57 -4 32 -13 73 -20 93 -7 19 -18 73
-25 119 -6 47 -18 101 -25 120 -7 20 -16 58 -20 85 -6 40 -4 48 8 43 12 -4 13
1 5 35 -5 22 -15 52 -22 67 -8 14 -19 51 -24 82 -6 30 -17 73 -25 95 -9 21
-18 75 -21 118 -2 44 -10 82 -16 86 -9 5 -9 9 -1 14 15 10 14 63 -3 111 -11
31 -16 36 -21 23 -4 -10 -10 -16 -15 -13 -18 11 -56 145 -91 320 -7 33 -18 72
-26 87 -7 15 -13 38 -13 51 0 13 -3 26 -6 29 -3 4 -7 32 -9 63 -2 41 -10 64
-24 79 -12 12 -21 35 -22 52 0 16 -7 45 -15 64 -10 25 -13 28 -9 9 2 -14 0
-41 -5 -59 -6 -23 -6 -47 1 -73 9 -32 7 -42 -6 -57 -12 -13 -14 -26 -9 -42 10
-28 7 -66 -7 -94 -7 -14 -8 -33 -1 -57 11 -39 6 -53 -13 -37 -17 14 -28 -56
-12 -80 6 -11 8 -22 5 -25 -3 -4 -47 4 -97 18 -87 23 -91 23 -91 5 0 -13 10
-20 30 -24 20 -4 30 -13 30 -24 0 -11 10 -20 28 -23 16 -3 39 -15 52 -25 23
-19 24 -22 10 -47 -28 -52 -56 -46 -52 10 3 34 2 34 -28 29 -24 -5 -30 -3 -30
10 0 14 -5 16 -22 10 -35 -12 -149 -4 -177 11 -36 19 -91 73 -91 90 0 11 7 11
40 -2 29 -12 44 -13 51 -6 8 8 5 14 -10 22 -12 7 -21 17 -21 23 0 9 3 9 11 1
9 -9 49 -7 49 3 0 10 -55 142 -67 159 -7 11 -13 25 -13 32 0 7 -13 42 -30 78
-32 70 -36 85 -20 85 18 0 11 25 -35 120 -25 51 -43 95 -40 98 3 3 19 -10 36
-29 l30 -34 -6 30 c-3 17 -21 55 -39 85 -18 30 -36 64 -38 75 -3 11 -9 29 -13
40 -19 48 61 -67 91 -133 19 -39 34 -74 34 -77 0 -2 16 -30 35 -62 19 -32 35
-64 35 -72 0 -7 14 -30 32 -50 18 -20 28 -27 24 -16 -16 39 -18 55 -7 55 6 0
11 -6 11 -13 0 -27 134 -187 157 -187 7 0 13 -5 13 -11 0 -12 92 -100 99 -94
6 7 -49 84 -75 104 -33 26 -33 46 1 75 30 26 30 26 13 58 -15 30 -23 55 -42
141 -5 20 -3 27 9 27 20 0 20 0 -20 115 -26 75 -33 109 -28 137 3 23 2 38 -5
38 -12 0 -24 34 -27 75 -1 17 -5 51 -8 78 -7 53 6 62 38 27 10 -11 29 -20 42
-20 15 0 35 -12 51 -30 45 -51 65 -33 37 33 -6 14 -3 17 15 15 18 -2 25 4 34
29 l11 33 30 -20 c35 -23 45 -25 45 -7 0 7 7 22 15 33 14 19 15 19 33 -5 l19
-23 6 77 c3 42 1 89 -4 103 -5 14 -10 50 -11 79 -2 56 -21 83 -59 83 -9 0 -22
7 -29 15 -14 17 -105 21 -115 5 -10 -16 -35 -12 -35 5 0 9 12 20 28 26 l27 11
-25 10 c-14 5 -49 7 -77 5 -40 -4 -53 -2 -53 8 0 31 -63 23 -83 -11 -11 -19
-47 -18 -47 1 0 8 -6 15 -14 15 -7 0 -19 -7 -26 -15 -16 -20 -38 -19 -42 1 -4
19 -102 54 -120 42 -25 -15 -35 -8 -52 35 -14 38 -22 46 -59 56 -23 7 -49 20
-59 28 -9 8 -25 13 -35 12 -10 -2 -24 0 -32 5 -16 10 -187 18 -213 10z m267
-175 c10 -15 2 -19 -24 -12 -17 4 -19 8 -9 14 18 12 26 11 33 -2z m272 -341
c36 -13 39 -33 6 -33 -12 0 -24 -3 -28 -6 -6 -6 -55 36 -55 46 0 9 44 5 77 -7z
m85 -395 c9 -10 21 -35 29 -55 7 -21 17 -38 21 -38 4 0 8 -7 8 -15 0 -12 -4
-11 -20 5 -11 11 -20 24 -20 29 0 5 -6 14 -14 20 -17 14 -39 71 -27 71 4 0 15
-8 23 -17z m128 -323 c17 -31 -4 -23 -29 11 -22 29 -22 30 -2 20 11 -6 25 -20
31 -31z m65 -90 c3 -6 -1 -7 -9 -4 -18 7 -21 14 -7 14 6 0 13 -4 16 -10z m172
-732 c-2 -13 -4 -3 -4 22 0 25 2 35 4 23 2 -13 2 -33 0 -45z m-2487 -1153 c10
-12 7 -15 -15 -21 -27 -7 -93 0 -103 11 -12 11 23 25 64 25 24 0 47 -6 54 -15z
m1723 -1228 c4 -10 -2 -13 -19 -9 -13 2 -24 8 -24 13 0 14 37 10 43 -4z"/>
<path d="M4770 11938 c-15 -6 -67 -8 -133 -4 -78 4 -128 1 -180 -10 -48 -10
-96 -13 -142 -9 -73 6 -225 -12 -322 -39 -28 -8 -96 -19 -150 -25 -93 -11
-166 -27 -188 -41 -9 -6 -103 -36 -310 -100 -83 -25 -163 -62 -225 -104 -132
-88 -299 -245 -404 -380 -113 -146 -124 -161 -158 -226 -19 -36 -49 -89 -67
-118 -17 -29 -31 -55 -31 -57 0 -3 -17 -33 -37 -67 -45 -75 -116 -217 -137
-273 -8 -22 -38 -94 -66 -159 -55 -128 -98 -244 -124 -341 -9 -33 -21 -69 -25
-80 -5 -11 -16 -40 -24 -65 -8 -25 -31 -94 -51 -155 -61 -186 -76 -242 -76
-287 -1 -24 -12 -97 -26 -163 -14 -66 -28 -138 -31 -160 -3 -22 -14 -52 -24
-67 -27 -37 -50 -104 -54 -159 -3 -25 -11 -72 -19 -105 -55 -226 -97 -378
-120 -431 -14 -34 -26 -67 -26 -73 0 -6 -9 -30 -20 -52 -11 -23 -20 -46 -20
-52 0 -5 -17 -46 -39 -90 -34 -72 -63 -134 -158 -346 -14 -30 -29 -63 -34 -72
-5 -10 -9 -22 -9 -27 0 -6 -13 -32 -28 -58 -28 -48 -44 -92 -61 -168 -5 -22
-16 -58 -25 -80 -8 -22 -15 -48 -16 -57 0 -10 -4 -18 -8 -18 -14 0 -50 -92
-57 -144 -4 -27 -11 -56 -16 -65 -15 -28 -38 -109 -54 -189 -8 -42 -19 -93
-25 -112 -51 -193 -72 -275 -85 -330 -37 -166 -98 -378 -130 -455 -21 -51 -52
-147 -65 -205 -7 -30 -19 -63 -28 -72 -8 -10 -18 -34 -23 -55 -5 -21 -15 -65
-23 -98 -8 -33 -20 -80 -26 -104 -6 -24 -15 -52 -21 -63 -6 -11 -17 -63 -25
-117 -14 -100 -40 -219 -55 -259 -5 -13 -9 -32 -9 -43 0 -10 -4 -27 -9 -37
-50 -92 -54 -411 -7 -516 8 -17 20 -71 26 -121 17 -129 39 -222 68 -285 25
-55 25 -55 15 -205 -9 -122 -8 -178 5 -299 12 -124 13 -160 2 -212 -6 -35 -12
-117 -11 -181 1 -117 23 -332 36 -352 3 -6 6 -100 6 -209 -1 -114 4 -225 11
-263 12 -65 13 -67 37 -58 34 14 41 -1 41 -97 0 -130 28 -176 76 -123 l19 21
17 -21 c9 -12 24 -45 34 -74 9 -28 32 -73 50 -98 19 -26 34 -49 34 -52 0 -9
58 -93 72 -104 7 -6 28 -14 46 -18 42 -9 129 -61 178 -108 21 -20 42 -37 47
-37 4 0 7 -17 7 -37 0 -31 -5 -40 -27 -50 -15 -7 -33 -13 -40 -13 -7 0 -13 -4
-13 -10 0 -5 -7 -10 -17 -10 -9 0 -40 -12 -70 -26 -47 -23 -138 -41 -283 -54
-12 -1 137 -130 162 -141 22 -9 37 -8 70 4 122 44 325 120 343 127 11 5 47 18
80 29 l59 19 13 -36 c25 -72 43 -154 43 -197 0 -26 5 -45 13 -48 6 -2 0 -7
-15 -11 -16 -3 -40 -9 -55 -12 -26 -6 -26 -7 -8 -14 l20 -9 -20 0 c-12 -1 -16
-4 -10 -9 6 -4 11 -18 10 -32 0 -19 -5 -24 -20 -22 -11 2 -26 9 -33 15 -25 20
-114 57 -125 51 -7 -3 -3 1 7 10 17 14 -53 15 -713 16 l-731 0 0 -500 0 -500
8036 0 8036 0 -6 23 c-3 12 -13 54 -22 92 -9 39 -18 77 -21 85 -6 16 -6 19
-22 120 -23 143 -30 177 -85 400 -8 30 -25 102 -37 159 -15 65 -31 111 -43
122 -19 18 -53 133 -87 289 -21 96 -23 127 -9 132 11 3 16 170 6 187 -13 20 5
12 24 -11 10 -12 29 -23 42 -23 13 -1 30 -5 37 -9 10 -7 11 78 7 435 -3 244
-7 467 -10 494 -2 28 -7 100 -11 160 -4 61 -8 128 -10 150 -2 22 -4 80 -5 130
0 49 -6 95 -12 102 -6 8 -8 32 -4 59 3 25 1 54 -4 65 -6 10 -7 19 -2 19 8 0 8
82 -1 97 -3 4 -5 51 -6 103 0 52 -3 118 -6 145 -3 28 -5 61 -5 75 0 13 -6 47
-14 75 -7 27 -13 60 -14 72 0 11 -10 42 -22 68 -12 27 -20 58 -17 71 2 13 1
24 -4 24 -4 0 -9 15 -11 33 -2 18 -8 31 -15 30 -8 -2 -10 4 -6 13 4 10 0 20
-9 25 -9 5 -19 25 -22 44 -5 26 -18 43 -45 63 -26 18 -43 42 -54 72 -9 25 -37
67 -62 94 -25 26 -45 52 -45 56 0 4 -7 14 -16 21 -22 18 -64 85 -64 102 0 14
-72 83 -116 112 -13 8 -24 22 -24 29 0 8 -12 21 -26 31 -14 9 -32 32 -40 51
-8 19 -19 34 -24 34 -6 0 -10 7 -10 15 0 18 -48 31 -62 17 -8 -8 -15 -6 -25 4
-8 8 -26 14 -40 14 -16 0 -27 7 -30 20 -3 11 -11 20 -18 20 -8 0 -23 12 -36
27 -14 18 -23 24 -26 15 -3 -9 -14 -6 -36 10 -20 14 -48 23 -77 24 -25 1 -45
2 -45 4 0 9 -71 5 -77 -4 -13 -20 -9 -219 7 -291 13 -62 58 -201 68 -211 2 -3
10 2 17 11 17 20 52 19 78 -4 27 -23 27 -36 2 -68 -11 -14 -20 -32 -20 -39 0
-13 19 -53 30 -64 3 -3 16 -29 30 -59 34 -74 61 -97 237 -198 52 -30 97 -76
118 -119 24 -52 64 -93 119 -125 28 -16 62 -38 76 -48 24 -19 24 -20 8 -55
-10 -19 -28 -42 -42 -51 -28 -19 -101 -17 -101 3 0 18 -7 18 -35 -1 -15 -9
-45 -18 -68 -20 -36 -4 -47 -10 -72 -46 -37 -50 -75 -58 -65 -13 5 25 3 28
-25 30 -21 2 -30 -2 -30 -13 0 -8 -4 -15 -10 -15 -5 0 -10 -7 -10 -15 0 -10
10 -15 34 -15 25 0 36 -5 41 -19 3 -11 52 -59 108 -107 122 -106 235 -220 248
-252 13 -34 11 -70 -7 -108 -15 -31 -57 -64 -82 -64 -17 0 -52 37 -52 55 0 11
-5 15 -15 11 -8 -3 -15 -1 -15 4 0 5 -11 26 -25 46 -16 24 -23 44 -19 57 5 17
3 19 -16 14 -12 -3 -19 -3 -16 0 3 3 -1 18 -9 33 -8 15 -11 30 -8 33 3 4 -2 9
-11 13 -9 3 -16 17 -16 30 0 29 -24 32 -74 7 -32 -15 -36 -15 -60 1 -14 9 -26
21 -26 26 0 6 -8 10 -17 11 -12 0 -13 2 -5 6 10 4 10 8 1 19 -9 11 -9 24 0 53
6 21 11 44 11 51 0 16 -131 140 -148 140 -16 0 -112 98 -112 116 0 7 4 15 10
19 13 8 142 -58 177 -92 62 -60 83 -76 83 -64 0 18 -100 121 -117 121 -14 0
-76 53 -153 130 -49 50 -70 78 -70 95 0 7 -4 17 -10 20 -6 3 -10 -4 -10 -17 1
-51 29 -296 40 -343 6 -27 12 -62 12 -77 1 -21 17 -39 77 -85 41 -32 109 -90
151 -129 80 -76 166 -146 321 -261 53 -40 112 -87 132 -105 57 -54 61 -115 11
-165 -28 -28 -70 -29 -68 -1 1 10 -18 34 -43 54 -39 32 -44 41 -41 70 3 26 -1
35 -19 43 -13 6 -23 16 -23 23 0 11 -65 64 -80 66 -3 1 -38 17 -78 37 -40 19
-76 35 -80 35 -4 0 -20 27 -35 60 -16 33 -39 65 -50 72 -12 6 -37 25 -55 43
-18 18 -58 52 -87 76 -40 32 -59 57 -72 91 -17 47 -46 68 -92 68 -9 0 -28 10
-43 23 -23 18 -32 41 -53 136 -14 63 -32 127 -40 143 -8 16 -22 84 -31 151 -9
69 -25 138 -35 159 -11 21 -23 77 -29 125 -5 48 -14 104 -19 123 -5 19 -12 62
-16 95 -9 77 -32 136 -45 115 -8 -12 -5 -241 3 -245 1 0 14 -6 30 -13 23 -10
27 -17 27 -52 0 -40 -7 -46 -47 -41 -17 2 -37 -50 -52 -134 -19 -107 -30 -133
-62 -152 -16 -10 -29 -22 -29 -28 0 -7 -10 -11 -21 -11 -12 1 -25 -6 -29 -14
-24 -48 -40 -94 -40 -116 0 -22 4 -25 23 -21 32 9 45 -3 56 -52 5 -24 15 -48
23 -52 7 -5 10 -9 6 -9 -14 0 26 -40 40 -40 25 0 25 30 -2 55 -29 27 -34 56
-11 75 13 11 16 8 21 -19 5 -22 11 -30 20 -27 8 3 14 1 14 -4 0 -6 6 -10 14
-10 17 0 40 -54 33 -75 -5 -10 -15 -13 -35 -9 -21 4 -31 2 -35 -10 -4 -9 -18
-16 -32 -16 -19 0 -25 5 -25 21 0 19 -1 19 -22 5 -24 -17 -54 -21 -60 -8 -7
16 -78 62 -95 62 -33 0 -40 18 -36 90 3 65 2 71 -19 79 -13 5 -35 20 -51 35
l-27 26 20 20 c25 25 46 26 53 0 7 -28 25 -25 33 4 9 36 0 43 -56 45 -28 0
-56 3 -61 7 -12 7 -69 -5 -68 -14 3 -19 -2 -25 -11 -12 -13 21 -138 26 -181 7
-68 -30 -102 -36 -167 -31 -97 8 -258 66 -292 105 -3 3 -20 10 -39 15 -42 11
-50 29 -19 39 62 21 64 23 24 24 -26 1 -43 -5 -52 -16 -11 -16 -28 -18 -139
-15 -70 1 -136 7 -146 13 -15 7 -23 6 -34 -5 -8 -8 -15 -18 -15 -22 0 -4 -16
-23 -36 -42 -21 -20 -33 -40 -30 -49 3 -8 6 -23 6 -34 0 -25 24 -24 60 1 39
28 55 28 135 2 351 -112 474 -154 493 -168 43 -30 27 -58 -73 -125 -27 -18
-56 -39 -65 -45 -8 -7 -44 -34 -80 -60 -36 -26 -84 -61 -107 -78 -24 -17 -73
-53 -110 -79 -57 -40 -168 -121 -564 -409 -13 -10 -60 -44 -104 -76 -151 -110
-550 -398 -585 -422 -56 -38 -64 -57 -27 -64 12 -3 99 -21 192 -41 225 -48
262 -60 342 -116 38 -26 106 -69 152 -96 85 -49 201 -152 201 -179 0 -8 12
-19 26 -24 20 -8 25 -15 21 -31 -4 -14 1 -23 18 -31 13 -6 25 -20 27 -31 2
-11 12 -25 23 -31 11 -6 24 -17 29 -25 5 -8 26 -33 46 -55 20 -23 46 -57 58
-76 11 -20 31 -47 43 -60 12 -14 35 -47 51 -75 41 -70 78 -125 116 -175 17
-24 32 -49 32 -57 0 -7 5 -13 10 -13 6 0 10 -5 10 -12 0 -7 11 -23 24 -37 13
-15 35 -47 50 -72 23 -41 24 -47 10 -53 -8 -3 -104 -6 -212 -7 -119 0 -189 -4
-177 -9 11 -5 15 -9 8 -9 -6 -1 -9 -10 -6 -21 3 -11 8 -18 12 -16 3 2 6 -66 6
-152 0 -153 1 -157 23 -167 20 -9 22 -16 22 -87 0 -63 -3 -78 -15 -78 -11 0
-15 -11 -15 -40 0 -22 -4 -40 -10 -40 -5 0 -10 -18 -10 -40 l0 -40 -40 0 -40
0 0 40 c0 29 -4 40 -15 40 -11 0 -15 -11 -15 -40 0 -29 -4 -40 -15 -40 -11 0
-15 -11 -15 -35 0 -20 -6 -42 -12 -49 -10 -11 -20 -6 -50 28 -20 22 -37 49
-38 60 0 10 -11 27 -24 37 -21 16 -24 30 -31 113 -6 78 -4 99 10 127 12 23 14
34 6 37 -6 2 -11 21 -11 43 0 27 -4 39 -14 39 -14 0 -17 12 -37 142 -13 89 -9
108 23 108 13 1 34 7 48 15 24 14 23 14 -30 16 l-55 2 45 7 c25 4 -63 8 -198
8 l-242 2 -9 23 c-5 13 -16 29 -25 36 -9 7 -16 19 -16 26 0 13 -38 63 -101
135 -17 19 -48 55 -69 79 -22 25 -43 62 -50 89 -9 38 -48 98 -97 150 -6 7 -27
15 -45 19 -52 9 -65 20 -72 58 -7 35 -46 71 -46 42 0 -8 -7 -21 -16 -28 -14
-11 -18 -10 -30 6 -8 10 -14 30 -14 45 0 19 -9 30 -33 43 -18 10 -37 27 -42
39 -6 12 -17 25 -25 28 -8 4 -43 20 -78 36 -70 32 -75 35 -66 58 6 16 64 23
64 8 0 -5 33 -21 73 -36 39 -15 89 -39 110 -52 34 -22 37 -23 37 -6 0 21 -46
97 -86 141 -15 17 -49 45 -76 62 l-48 31 -42 -27 c-23 -15 -47 -32 -52 -37
-25 -21 -219 -148 -226 -148 -5 0 -10 -3 -12 -7 -2 -5 -73 -55 -158 -112 -85
-58 -157 -107 -160 -110 -3 -3 -39 -28 -80 -56 -41 -27 -79 -53 -85 -58 -5 -4
-60 -42 -121 -85 -62 -42 -209 -144 -327 -227 -119 -82 -234 -156 -257 -163
-22 -8 -40 -18 -40 -23 0 -5 -10 -9 -22 -9 -12 0 -18 -3 -15 -6 4 -4 -24 -26
-61 -49 -37 -23 -112 -73 -167 -112 -115 -81 -191 -123 -220 -123 -11 0 -38
11 -60 24 -22 13 -61 36 -87 50 -44 24 -98 67 -98 78 0 3 10 8 22 11 12 4 20
9 17 12 -7 6 79 95 92 95 4 0 14 8 21 19 7 10 22 21 33 24 11 2 -34 6 -100 7
-66 1 -129 5 -140 10 -17 7 -17 9 -2 9 9 1 17 4 17 9 0 4 17 18 38 32 20 14
39 27 42 30 13 14 64 30 95 30 51 0 43 19 -28 66 -85 55 -85 70 0 130 37 26
88 64 113 84 41 33 114 82 182 124 15 9 32 24 37 35 10 17 8 18 -22 7 -18 -6
-50 -24 -72 -39 -22 -15 -43 -27 -48 -27 -4 0 -13 -5 -20 -10 -7 -6 -82 -60
-167 -121 -152 -108 -163 -119 -174 -169 -3 -14 -36 -58 -73 -98 -37 -40 -74
-80 -81 -88 -10 -11 -50 -14 -190 -15 -97 0 -199 -4 -227 -9 l-50 -7 45 -3 45
-3 -45 -7 c-37 -6 -40 -7 -15 -10 29 -2 28 -3 -10 -12 -29 -6 -49 -20 -70 -48
-16 -22 -37 -39 -46 -40 -9 0 -19 -7 -23 -15 -3 -8 -16 -15 -30 -15 -14 0 -31
-6 -38 -13 -7 -7 -21 -16 -31 -20 -10 -4 -15 -11 -12 -17 3 -5 0 -7 -8 -5 -7
3 -22 -3 -32 -15 -10 -11 -24 -20 -32 -20 -7 0 -13 -9 -13 -20 0 -15 -7 -20
-29 -20 -16 0 -36 -6 -44 -14 -8 -8 -31 -18 -51 -21 -20 -4 -36 -11 -36 -16 0
-5 -36 -9 -80 -9 -47 0 -80 -4 -80 -10 0 -5 -18 -10 -40 -10 -22 0 -40 5 -40
10 0 6 -34 10 -83 10 -79 0 -85 1 -112 30 -24 25 -36 30 -77 30 -38 0 -48 -3
-48 -16 0 -14 -9 -16 -62 -11 -34 3 -64 10 -66 16 -2 6 -9 11 -16 11 -8 0 -25
12 -40 26 -14 15 -26 23 -26 18 0 -5 -5 -2 -11 6 -8 11 -12 12 -16 3 -5 -14
-114 -19 -126 -6 -4 3 -30 14 -58 24 -28 10 -57 26 -65 36 -7 10 -14 14 -14 8
0 -7 -3 -7 -8 0 -4 6 -23 18 -44 29 -20 10 -39 27 -41 38 -3 11 -15 22 -26 25
-12 3 -21 10 -21 17 0 6 -10 16 -22 21 -13 6 -22 16 -20 23 1 7 -10 12 -25 13
-25 0 -26 1 -8 9 12 5 -46 9 -151 9 -210 1 -294 9 -294 27 0 8 -9 19 -20 26
-24 15 -27 48 -4 48 14 0 14 3 4 15 -9 11 -15 12 -20 5 -4 -7 -20 2 -43 23
-31 28 -37 40 -37 74 0 24 5 43 13 46 10 3 10 9 0 26 -7 11 -13 28 -13 36 0 9
-9 15 -24 15 -13 0 -30 10 -39 22 l-16 23 0 -22 c-1 -41 -21 -24 -21 17 0 22
5 40 10 40 6 0 10 18 10 40 0 29 -4 40 -15 40 -8 0 -15 6 -15 13 0 8 -11 27
-25 43 -14 16 -25 36 -25 44 0 8 -9 21 -20 28 -16 9 -20 23 -20 62 0 43 -3 50
-20 50 -17 0 -20 7 -20 40 0 22 -4 40 -9 40 -5 0 -12 35 -16 77 -8 84 -21 123
-42 123 -7 0 -13 10 -13 23 0 12 -9 41 -20 62 -11 22 -23 57 -27 78 -3 22 -11
37 -19 37 -10 0 -14 13 -14 40 0 24 -5 40 -12 40 -9 0 -9 3 0 12 7 7 12 25 12
40 0 18 5 28 15 28 11 0 15 11 15 38 0 21 6 44 13 51 10 10 8 15 -8 27 -26 20
-84 13 -158 -21 -72 -33 -107 -30 -125 10 -24 56 -29 60 -62 58 -18 -1 -36 -6
-39 -11 -3 -6 -29 -19 -57 -30 -27 -11 -66 -29 -85 -40 -60 -34 -144 -87 -149
-94 -5 -6 -23 -13 -140 -55 -25 -9 -51 -23 -58 -30 -7 -7 -20 -13 -29 -13 -8
0 -34 -19 -56 -42 -72 -74 -89 -81 -239 -111 -54 -10 -59 -9 -97 16 -21 14
-47 40 -57 57 -10 16 -24 30 -31 30 -7 0 -13 9 -13 20 0 11 -7 23 -15 26 -8 4
-15 11 -15 17 0 6 -12 24 -27 40 -27 28 -28 29 -9 43 11 8 30 14 43 14 13 0
23 5 23 10 0 6 6 10 14 10 13 0 132 73 146 89 3 3 22 15 43 26 48 24 77 59 70
85 -3 11 -6 20 -8 20 -1 0 -38 -9 -81 -20 -44 -11 -144 -25 -224 -31 -127 -9
-154 -8 -215 6 -39 9 -102 18 -142 20 -111 4 -106 -10 -108 299 -1 153 -6 280
-12 306 -31 124 -39 377 -17 568 4 32 2 52 -4 52 -6 0 -13 8 -15 17 -3 13 -5
12 -6 -5 -1 -21 -4 -19 -41 19 -22 23 -40 44 -40 46 0 1 8 3 18 3 10 0 23 15
34 41 10 23 22 38 28 34 6 -4 10 10 10 38 0 72 -12 135 -26 141 -17 6 -64 -16
-64 -31 0 -20 -93 -45 -124 -33 -36 13 -36 13 -36 -10 0 -27 -2 -26 -43 15
-42 42 -50 43 -82 11 -19 -19 -24 -32 -20 -55 3 -17 7 -44 10 -61 3 -18 -1
-35 -10 -44 -8 -8 -15 -25 -15 -38 0 -13 -7 -32 -15 -42 -19 -26 -19 -65 0
-72 8 -4 15 -14 15 -24 0 -11 5 -22 10 -25 12 -8 13 -85 1 -85 -5 0 -11 -18
-15 -40 -3 -22 -11 -40 -16 -40 -15 0 -12 -31 5 -64 9 -17 15 -56 15 -101 0
-50 4 -75 13 -78 9 -3 9 -7 -1 -20 -12 -13 -10 -18 7 -29 12 -7 21 -20 21 -29
0 -9 9 -28 20 -42 11 -14 20 -32 20 -41 0 -9 9 -25 21 -37 17 -17 20 -29 15
-63 -4 -22 -13 -46 -21 -52 -8 -6 -15 -21 -15 -33 l0 -22 -47 26 c-27 14 -67
43 -91 65 -24 22 -51 40 -61 40 -10 0 -26 9 -36 20 -10 11 -33 22 -51 26 -19
3 -34 10 -34 14 0 5 -18 11 -40 15 -22 4 -40 10 -40 15 0 5 -39 11 -87 14 -49
4 -115 13 -148 21 -33 7 -105 19 -160 25 -55 7 -110 16 -123 21 -12 5 -59 18
-105 30 -45 11 -86 24 -92 29 -5 4 -32 10 -60 13 -27 2 -102 21 -165 40 -139
44 -186 47 -201 14 -8 -18 -6 -33 7 -64 14 -32 24 -42 56 -50 23 -6 38 -6 38
-1 0 5 10 6 22 2 13 -4 34 -9 48 -11 51 -6 85 -17 95 -29 6 -7 46 -25 90 -39
44 -15 88 -34 98 -43 9 -8 42 -17 72 -20 30 -2 55 -8 55 -12 0 -4 37 -11 83
-16 45 -4 74 -9 65 -12 -25 -5 -26 -82 -2 -82 11 0 15 -6 11 -20 -5 -18 0 -20
49 -20 52 0 56 -2 75 -35 12 -19 25 -35 30 -35 5 0 9 -11 9 -25 0 -14 5 -25
10 -25 6 0 10 -18 10 -40 0 -38 2 -40 30 -40 20 0 30 -5 30 -15 0 -11 11 -15
40 -15 29 0 40 -4 40 -15 0 -11 11 -15 40 -15 22 0 40 -4 40 -10 0 -5 -18 -10
-40 -10 l-40 0 0 -120 0 -120 -40 0 -40 0 0 40 c0 22 -4 40 -9 40 -12 0 -71
-59 -71 -71 0 -5 -18 -9 -40 -9 -22 0 -40 -4 -40 -8 0 -12 -91 -42 -127 -42
-23 0 -33 -5 -33 -15 0 -11 -11 -15 -40 -15 l-40 0 0 -40 0 -40 40 0 c22 0 40
-4 40 -10 0 -5 -18 -10 -40 -10 -22 0 -40 5 -40 10 0 6 -25 10 -55 10 l-55 0
0 -40 0 -40 40 0 40 0 0 -40 0 -40 95 0 95 0 0 -80 c0 -64 -3 -80 -15 -80 -11
0 -15 -11 -15 -40 l0 -40 -65 0 c-37 0 -65 -4 -65 -10 0 -15 -78 -12 -83 3 -3
9 -7 9 -20 -2 -10 -8 -24 -10 -34 -6 -10 5 -21 8 -24 7 -4 -1 -5 8 -2 19 5 16
2 20 -14 17 -11 -1 -28 4 -37 11 -11 9 -35 14 -59 13 -23 -2 -55 4 -71 13 -33
17 -56 19 -56 5 0 -24 -176 -1 -216 28 -23 17 -33 62 -14 62 17 0 50 88 50
130 0 41 -28 109 -45 110 -9 0 -26 31 -81 143 -8 16 -14 35 -14 42 0 16 -39
84 -63 110 -40 44 -68 100 -76 153 -5 31 -19 91 -31 132 -26 86 -30 162 -19
375 7 147 14 179 44 221 15 20 12 25 -60 95 -53 52 -75 81 -75 98 0 14 23 70
51 125 81 159 144 312 174 426 15 57 33 114 41 125 8 10 14 29 14 42 0 12 4
24 9 27 5 4 14 29 20 57 6 28 20 64 31 79 11 16 20 38 20 49 0 12 5 21 10 21
6 0 10 11 10 24 0 14 5 28 11 31 6 4 8 13 5 20 -4 13 24 76 58 127 10 15 15
32 11 38 -5 9 25 87 55 142 6 11 5 18 -3 22 -8 3 -5 10 9 23 33 28 72 116 67
149 -3 22 -2 25 6 14 16 -23 40 4 25 28 -14 22 0 62 22 62 11 0 15 6 11 20 -3
11 -2 20 1 20 4 0 8 17 9 37 1 20 6 39 10 42 21 14 43 58 43 84 0 15 9 47 20
69 11 23 20 50 20 60 0 11 14 33 30 51 30 31 31 31 45 13 8 -11 13 -29 10 -40
-3 -12 -2 -15 1 -8 3 6 10 12 16 12 16 0 74 64 99 111 13 24 31 51 40 59 8 8
29 35 46 60 38 56 97 114 173 170 69 51 150 121 150 129 0 5 16 26 35 47 19
22 35 45 35 52 0 6 9 12 20 12 12 0 20 7 20 18 0 9 27 45 60 80 33 34 60 68
60 77 0 8 12 23 27 32 15 10 41 30 57 46 17 15 36 27 43 27 7 0 25 14 40 31
55 62 103 106 148 135 52 32 125 107 125 127 0 11 11 30 26 43 21 20 35 24 93
24 40 0 84 7 106 16 40 16 255 26 255 12 0 -5 33 -8 74 -8 41 0 77 -4 80 -9 3
-4 27 -14 53 -21 50 -14 156 -67 161 -81 2 -5 10 -9 17 -9 7 0 15 -3 17 -7 2
-5 46 -30 98 -57 52 -26 102 -54 110 -60 8 -7 42 -26 75 -43 33 -17 98 -51
145 -75 47 -25 114 -61 150 -82 36 -20 85 -49 110 -63 25 -14 76 -46 113 -72
111 -75 110 -74 155 -51 26 14 55 20 89 19 44 -2 92 16 113 42 10 13 49 29 92
38 49 11 178 80 218 116 14 12 45 35 70 50 55 33 79 61 126 143 19 35 58 93
86 130 74 97 86 136 107 352 12 118 23 151 61 174 17 9 28 22 24 27 -3 6 -8
38 -10 72 -3 65 -34 208 -67 317 -10 36 -20 72 -21 81 -1 8 -9 31 -18 50 -9
19 -21 70 -28 114 -6 44 -18 103 -25 130 -18 62 -25 111 -30 200 -2 39 -10
104 -19 145 -9 41 -16 104 -16 140 0 66 -28 309 -56 480 -27 171 -29 228 -8
253 54 63 56 74 60 326 3 214 1 247 -21 356 -34 175 -34 178 -24 197 9 17 12
17 40 2 25 -13 33 -13 46 -2 13 10 15 29 10 104 l-5 91 24 -5 c15 -3 24 -11
24 -23 0 -23 21 -69 32 -69 4 0 8 -36 8 -80 0 -71 -2 -80 -19 -80 -28 0 -33
-58 -11 -143 10 -40 21 -110 25 -157 7 -86 32 -156 60 -166 8 -4 50 30 107 86
51 50 107 98 123 106 69 34 102 143 111 369 5 103 -19 230 -41 223 -13 -4 -12
-47 5 -141 14 -76 13 -79 -14 -165 -41 -127 -61 -175 -72 -179 -5 -2 -17 10
-27 26 -9 16 -38 51 -65 78 -26 27 -56 70 -66 96 -10 26 -22 47 -27 47 -5 0
-9 11 -9 24 0 14 -4 27 -9 31 -10 6 -9 33 4 143 6 48 4 78 -10 130 -10 37 -22
70 -27 73 -14 9 -23 109 -10 109 6 0 17 -10 23 -22 20 -36 47 -61 59 -53 23
14 -5 104 -60 190 -16 26 -28 95 -16 95 11 0 66 -56 66 -67 0 -7 3 -13 8 -13
4 0 12 -8 17 -18 44 -83 94 -142 119 -142 16 0 2 62 -25 115 -44 85 -63 119
-70 125 -3 3 -14 20 -23 38 -9 18 -24 36 -32 39 -7 3 -14 11 -14 18 0 7 -7 18
-15 25 -9 8 -15 30 -15 60 0 53 -34 126 -81 174 -16 16 -29 33 -29 37 0 5 -39
41 -87 81 -49 39 -90 75 -93 78 -17 21 -171 105 -255 141 -145 60 -212 78
-297 81 -68 3 -79 1 -101 -20 -23 -22 -28 -23 -64 -12 -68 22 -82 32 -88 62
-12 55 -95 129 -142 127 -10 0 -29 -5 -43 -11z m595 -4295 c14 -92 7 -149 -30
-227 -19 -40 -35 -77 -35 -82 0 -6 -13 -23 -30 -39 -25 -24 -30 -26 -30 -10 0
10 14 40 31 68 16 27 32 66 34 86 2 20 8 70 12 112 5 42 14 84 22 93 8 10 9
16 3 16 -6 0 -9 7 -6 15 11 28 22 15 29 -32z m177 -688 c-5 -42 -88 -151 -165
-216 -84 -71 -147 -93 -217 -77 -41 9 -53 9 -74 -5 -33 -22 -48 -21 -95 2 -42
22 -111 93 -111 116 0 31 47 48 116 42 59 -6 78 -2 197 38 178 59 193 65 262
102 72 39 91 39 87 -2z m8653 -3155 c3 -6 15 -10 26 -10 11 0 19 -7 19 -16 0
-11 -5 -14 -17 -9 -10 4 -33 11 -50 17 -31 8 -42 26 -27 41 8 7 40 -8 49 -23z
m323 -625 c25 -25 42 -48 39 -52 -10 -10 -117 65 -117 82 0 28 32 15 78 -30z
m229 -186 c118 -78 293 -207 293 -215 0 -11 -33 -69 -44 -76 -18 -12 -26 -9
-35 15 -5 12 -21 33 -35 46 -19 18 -23 28 -15 37 8 9 -4 16 -48 29 -31 9 -66
27 -78 40 -11 12 -35 31 -54 40 -19 10 -43 27 -53 39 -37 43 -68 116 -48 116
6 0 59 -32 117 -71z m-461 -289 c7 -19 13 -57 13 -85 l1 -50 -19 25 c-11 13
-18 27 -16 30 2 4 -9 4 -25 2 -18 -3 -30 -12 -34 -26 -6 -20 -8 -19 -36 14
-17 19 -30 38 -30 43 0 13 37 44 71 59 16 7 29 17 29 21 0 23 35 -2 46 -33z
m-11726 -670 c0 -28 2 -30 40 -30 22 0 40 -4 40 -10 0 -6 39 -10 98 -10 86 0
99 2 110 20 7 11 17 20 22 20 6 0 10 -9 10 -20 0 -15 7 -20 28 -20 15 0 33 5
40 12 9 9 12 9 12 -1 0 -10 17 -12 80 -6 l80 7 0 -46 0 -46 -80 0 c-79 0 -80
0 -80 -25 0 -25 -1 -25 -80 -25 -79 0 -80 0 -80 25 0 25 -1 25 -80 25 -47 0
-80 -4 -80 -10 0 -6 -33 -10 -80 -10 l-80 0 0 50 c0 47 -2 50 -25 50 -22 0
-25 4 -25 40 l0 40 65 0 65 0 0 -30z m-1138 -188 c7 -52 -12 -70 -32 -32 -8
14 -8 26 0 40 15 28 27 25 32 -8z m338 -13 c10 -15 89 -38 138 -40 52 -2 102
-17 102 -30 0 -5 9 -29 21 -54 15 -32 27 -45 43 -46 11 0 15 -3 9 -6 -7 -2
-13 -12 -13 -20 0 -10 6 -13 16 -9 9 3 20 6 25 6 5 0 9 7 9 15 0 19 68 19 210
0 118 -16 279 -18 358 -4 152 27 171 32 245 63 20 9 37 21 37 26 0 6 16 10 37
10 29 0 44 8 77 41 22 23 42 37 44 30 5 -14 82 -15 82 -1 0 6 18 10 40 10 40
0 40 0 40 -39 0 -39 -1 -40 -37 -43 -31 -2 -39 -7 -41 -25 -2 -13 -8 -23 -15
-23 -6 0 -20 -8 -31 -19 -27 -24 -101 -47 -196 -61 -41 -6 -77 -15 -80 -20 -3
-5 -59 -10 -123 -11 -64 -1 -117 -6 -117 -11 0 -4 -19 -8 -41 -8 -23 0 -58 -4
-78 -9 -20 -5 -60 -14 -89 -20 -29 -6 -71 -20 -94 -31 -23 -11 -46 -20 -51
-20 -5 0 -23 -6 -40 -14 -55 -24 -99 -36 -133 -36 -19 0 -34 -4 -34 -10 0 -5
-18 -10 -41 -10 -58 0 -119 -37 -119 -72 0 -16 -4 -28 -10 -28 -5 0 -12 -11
-16 -25 -4 -18 -13 -25 -30 -25 -13 0 -24 -5 -24 -10 0 -40 -120 -20 -157 26
-38 48 -31 64 26 64 40 0 53 4 65 22 24 34 19 54 -24 94 -46 43 -64 88 -54
138 4 23 2 36 -4 36 -6 0 -18 12 -26 28 -40 73 -40 70 -22 87 9 9 16 30 16 46
0 16 5 29 10 29 6 0 10 7 10 16 0 13 7 15 37 9 21 -4 40 -11 43 -16z m2800
-189 c0 -11 5 -29 12 -39 9 -15 9 -23 -1 -35 -26 -31 -106 -10 -114 31 -10 51
1 63 54 63 42 0 49 -3 49 -20z m10320 -231 c0 -6 7 -17 15 -26 8 -8 13 -19 10
-24 -11 -17 -23 -9 -34 22 -13 39 -13 39 -1 39 6 0 10 -5 10 -11z m-12240 -39
c0 -5 18 -10 40 -10 22 0 40 -4 40 -10 0 -5 9 -10 20 -10 11 0 20 7 20 15 0
13 10 14 58 9 31 -4 59 -11 60 -16 6 -14 42 -9 42 7 0 13 10 14 58 9 31 -4 59
-11 60 -16 2 -4 39 -8 83 -8 l79 0 0 -39 0 -39 -80 -6 c-44 -3 -116 -9 -160
-12 -55 -4 -80 -3 -80 5 0 6 -17 11 -40 11 -22 0 -40 -5 -40 -10 0 -6 -8 -5
-20 2 -11 7 -20 19 -20 27 0 7 -11 24 -26 37 -22 21 -34 24 -102 23 -138 -1
-152 0 -152 15 0 10 14 16 43 19 86 7 117 7 117 -3z m660 -100 c0 -5 14 -10
30 -10 17 0 30 -4 30 -10 0 -5 -18 -10 -40 -10 -33 0 -40 3 -40 20 0 11 5 20
10 20 6 0 10 -4 10 -10z m11660 -32 c0 -23 -16 -16 -23 11 -3 14 -1 18 9 14 8
-3 14 -14 14 -25z m-12720 12 c0 -5 18 -10 40 -10 22 0 40 5 40 10 0 14 27 12
63 -4 18 -8 48 -17 67 -20 89 -13 145 -26 148 -36 2 -5 12 -10 23 -10 10 0 19
-4 19 -8 0 -11 66 -42 89 -42 10 0 35 -7 54 -15 20 -8 54 -15 76 -15 22 0 42
-4 46 -9 13 -21 69 -40 140 -46 41 -4 75 -11 75 -16 0 -5 19 -9 42 -9 23 0 39
-3 36 -6 -4 -3 -82 -7 -175 -10 -181 -4 -338 7 -412 31 -25 8 -83 22 -129 31
-46 10 -85 21 -88 26 -3 4 -23 8 -45 8 -22 0 -50 7 -63 15 -13 9 -57 22 -99
30 -42 8 -85 19 -94 24 -10 5 -26 12 -35 15 -9 3 -22 14 -28 26 -10 18 -7 22
22 35 38 16 188 20 188 5z m12779 -126 c24 -31 27 -54 7 -54 -16 0 -46 42 -46
65 0 23 16 18 39 -11z m-11676 -111 c-13 -2 -33 -2 -45 0 -13 2 -3 4 22 4 25
0 35 -2 23 -4z m11926 -747 c13 -7 20 -16 15 -18 -13 -8 -54 9 -54 22 0 13 10
12 39 -4z m159 -103 c38 -29 63 -55 57 -61 -2 -2 -12 3 -22 12 -10 9 -34 29
-53 46 -44 37 -31 39 18 3z"/>
<path d="M14169 2644 c-11 -14 -10 -15 11 -12 13 1 25 9 28 16 5 17 -23 15
-39 -4z"/>
<path d="M2010 1635 c0 -8 5 -15 10 -15 6 0 10 7 10 15 0 8 -4 15 -10 15 -5 0
-10 -7 -10 -15z"/>
<path d="M2041 1634 c0 -11 3 -14 6 -6 3 7 2 16 -1 19 -3 4 -6 -2 -5 -13z"/>
<path d="M2778 1333 c7 -3 16 -2 19 1 4 3 -2 6 -13 5 -11 0 -14 -3 -6 -6z"/>
<path d="M3040 1270 c0 -5 18 -10 40 -10 22 0 40 5 40 10 0 6 -18 10 -40 10
-22 0 -40 -4 -40 -10z"/>
<path d="M13940 10933 c0 -51 16 -106 40 -135 17 -20 19 -21 20 -5 0 26 -21
110 -31 122 -5 5 -9 17 -9 26 0 10 -4 21 -10 24 -6 4 -10 -9 -10 -32z"/>
<path d="M13410 10873 c0 -6 6 -18 13 -25 8 -7 16 -20 20 -28 4 -12 6 -12 6 1
1 9 -8 27 -19 40 -10 13 -19 19 -20 12z"/>
<path d="M13350 10813 c0 -10 9 -33 20 -51 11 -18 20 -41 20 -52 0 -10 5 -22
11 -25 5 -4 15 -19 21 -33 10 -24 12 -25 16 -7 2 10 -1 21 -7 23 -14 5 -14 35
0 49 13 13 -1 40 -44 87 -28 30 -37 32 -37 9z"/>
<path d="M12317 10741 c-37 -6 -53 -14 -77 -41 -16 -19 -29 -40 -30 -47 0 -7
-12 -34 -26 -60 -52 -95 -64 -122 -64 -150 1 -30 40 -83 63 -83 7 0 23 -14 36
-31 15 -20 30 -29 44 -28 12 1 44 -8 71 -20 58 -26 134 -46 143 -38 3 4 1 12
-5 20 -6 7 -10 19 -9 27 3 18 22 25 22 8 0 -18 24 -21 31 -4 9 23 47 20 62 -5
12 -19 15 -19 30 -6 30 26 62 30 107 12 26 -9 64 -15 95 -13 44 3 54 7 68 31
17 28 17 28 -23 64 -22 19 -61 54 -86 77 -25 23 -64 48 -87 55 -23 8 -42 18
-42 22 0 4 -24 13 -52 19 -57 14 -92 33 -81 43 3 4 82 7 174 7 92 0 170 4 174
9 7 12 -96 75 -156 95 -24 8 -72 18 -104 21 -33 3 -80 9 -105 15 -50 10 -102
11 -173 1z m253 -331 c0 -3 -11 -7 -25 -8 -27 -2 -28 -1 -19 22 5 12 9 13 25
3 10 -6 19 -14 19 -17z"/>
<path d="M13941 10655 c0 -11 6 -29 14 -39 8 -11 15 -28 15 -38 0 -10 5 -18
10 -18 6 0 10 -6 8 -12 -7 -40 31 -126 45 -101 7 13 -12 73 -23 73 -6 0 -10
10 -10 23 0 12 -11 38 -24 57 -13 20 -26 44 -29 55 -5 20 -5 20 -6 0z"/>
<path d="M13440 10611 c0 -5 7 -11 14 -14 10 -4 13 -1 9 9 -6 15 -23 19 -23 5z"/>
<path d="M13424 10525 c-9 -23 5 -35 42 -35 46 0 45 23 -2 38 -28 8 -36 8 -40
-3z"/>
<path d="M14041 10528 c0 -7 4 -22 9 -33 7 -17 9 -15 9 13 1 17 -3 32 -9 32
-5 0 -10 -6 -9 -12z"/>
<path d="M13362 10518 c3 -7 13 -15 22 -16 12 -3 17 1 14 10 -3 7 -13 15 -22
16 -12 3 -17 -1 -14 -10z"/>
<path d="M13944 10488 c13 -95 24 -140 33 -147 6 -3 13 -13 16 -21 10 -27 7
22 -4 65 -6 22 -12 51 -14 65 -4 32 -23 80 -31 80 -4 0 -4 -19 0 -42z"/>
<path d="M12494 10256 c-4 -10 -2 -22 4 -28 8 -8 13 -7 18 6 4 10 2 22 -4 28
-8 8 -13 7 -18 -6z"/>
<path d="M12545 10250 c-2 -3 0 -12 6 -20 6 -10 9 -11 9 -2 0 6 6 12 14 12 8
0 18 4 21 10 4 6 -5 9 -20 8 -15 -2 -28 -5 -30 -8z"/>
<path d="M12190 9969 c0 -46 -4 -55 -37 -85 -36 -33 -73 -45 -73 -24 0 6 -17
18 -37 27 -21 8 -47 20 -59 25 -26 12 -94 -25 -94 -51 0 -21 80 -120 98 -120
6 -1 12 -8 12 -17 0 -13 3 -13 28 -1 15 8 55 27 90 43 87 39 142 92 142 138 0
19 -4 38 -10 41 -5 3 -10 14 -10 24 0 10 -11 26 -25 35 l-25 16 0 -51z"/>
<path d="M6551 9865 c-1 -22 3 -46 8 -54 17 -26 22 24 7 60 l-15 34 0 -40z"/>
<path d="M6538 9741 c-33 -25 -49 -29 -140 -35 -78 -6 -116 -14 -158 -33 -31
-14 -81 -27 -115 -30 -109 -8 -105 -5 -105 -77 0 -77 0 -77 136 -69 81 5 97 4
114 -12 18 -16 22 -16 42 -3 54 36 225 47 244 16 11 -17 6 -90 -11 -160 -19
-82 -19 -98 0 -71 8 11 21 60 30 108 8 49 20 107 27 129 16 57 16 215 0 244
-16 27 -18 27 -64 -7z"/>
<path d="M11955 9634 c-11 -3 -29 -7 -41 -9 -30 -7 -48 -50 -28 -70 19 -19 58
-29 85 -22 27 7 49 -1 49 -19 0 -13 -56 -22 -85 -13 -5 1 -24 2 -42 1 -33 -2
-63 19 -63 43 0 8 -8 19 -17 24 -16 9 -15 10 5 11 13 0 20 4 17 10 -3 6 -17 7
-31 4 -14 -4 -46 -8 -72 -10 -122 -11 -115 -7 -101 -58 10 -36 11 -37 29 -21
26 23 58 11 109 -40 23 -24 54 -46 68 -50 14 -3 38 -15 53 -27 19 -14 37 -19
55 -15 27 5 93 -9 108 -22 10 -10 -79 -71 -103 -71 -11 0 -20 -4 -20 -10 0
-21 -20 -9 -26 15 -3 14 -10 25 -15 25 -5 0 -11 -11 -15 -25 -3 -14 -11 -25
-17 -25 -6 0 3 -15 20 -32 17 -18 34 -42 37 -54 5 -16 20 -24 62 -33 66 -15
197 -16 224 -1 10 5 48 10 83 10 45 0 68 5 77 15 7 8 20 15 29 15 10 0 26 7
37 15 10 8 27 15 37 15 16 0 22 12 18 34 -1 5 4 13 11 18 8 5 9 11 3 16 -21
15 -53 89 -60 137 -9 63 -31 101 -67 116 -17 7 -28 19 -28 30 0 13 -7 19 -22
19 -13 0 -18 -4 -13 -8 6 -4 12 -17 12 -29 3 -38 -32 -31 -177 35 -101 45
-156 62 -185 56z m360 -305 c-1 -12 -9 -25 -18 -31 -22 -12 -22 -31 1 -24 9 3
24 1 32 -4 10 -6 11 -10 3 -10 -8 0 -13 -15 -13 -40 0 -38 -1 -40 -32 -40 -48
0 -78 10 -78 26 0 11 -14 13 -72 8 -47 -4 -69 -3 -63 3 28 27 174 113 215 126
25 9 27 8 25 -14z"/>
<path d="M12280 9606 c0 -9 5 -16 10 -16 6 0 10 4 10 9 0 6 -4 13 -10 16 -5 3
-10 -1 -10 -9z"/>
<path d="M12000 8802 c0 -4 4 -12 9 -17 5 -6 27 -57 49 -115 54 -141 223 -499
255 -541 7 -10 29 -24 50 -32 36 -16 37 -15 39 6 2 39 -3 69 -22 126 -10 31
-21 69 -24 84 -4 16 -17 39 -29 51 -12 13 -31 40 -42 62 -17 35 -125 152 -125
136 0 -17 -101 168 -112 206 -8 29 -18 42 -30 42 -10 0 -18 -4 -18 -8z m380
-662 l25 -8 -25 0 c-14 0 -34 3 -45 8 l-20 9 20 -1 c11 0 31 -4 45 -8z"/>
<path d="M15142 8569 c-30 -11 -28 -24 6 -37 31 -12 395 -56 591 -72 74 -6
153 -15 175 -20 58 -13 332 -40 397 -39 48 1 51 2 24 10 -16 5 -50 11 -75 14
-71 7 -252 35 -260 40 -4 2 -49 7 -101 10 -52 3 -107 10 -124 15 -16 5 -75 14
-130 19 -55 5 -163 21 -240 34 -170 30 -235 36 -263 26z"/>
<path d="M19429 8442 c-8 -9 -28 -39 -42 -66 -23 -42 -27 -60 -27 -136 0 -50
6 -105 14 -128 14 -40 12 -76 -7 -99 -7 -10 1 -13 34 -12 24 1 36 3 27 6 -10
2 -18 9 -18 14 0 5 8 9 18 10 14 0 13 2 -5 11 -20 10 -20 12 -6 47 9 20 20 65
25 101 14 100 21 270 12 269 -5 0 -16 -8 -25 -17z"/>
<path d="M12685 8390 c-3 -5 -15 -10 -26 -10 -14 0 -19 -7 -19 -25 0 -22 -4
-25 -40 -25 -29 0 -40 -4 -40 -15 0 -12 13 -15 60 -15 l60 0 0 40 0 40 43 1
c36 1 38 2 17 9 -36 11 -48 11 -55 0z"/>
<path d="M12350 8048 c0 -9 5 -20 10 -23 13 -8 13 5 0 25 -8 13 -10 13 -10 -2z"/>
<path d="M14076 7438 c-40 -36 -76 -119 -76 -178 0 -19 7 -56 15 -82 21 -69
30 -300 15 -371 -6 -33 -38 -132 -70 -222 -32 -90 -63 -194 -69 -232 -10 -66
-20 -96 -61 -188 -10 -22 -29 -67 -43 -101 -27 -64 -53 -113 -149 -282 -32
-57 -58 -108 -58 -113 0 -5 -4 -9 -8 -9 -11 0 -43 -90 -36 -101 3 -5 14 -9 24
-9 23 0 40 -52 40 -127 0 -90 27 -115 49 -43 6 22 15 40 19 40 9 0 32 51 38
87 3 15 9 32 13 38 15 18 30 79 36 137 3 32 12 83 21 115 9 32 18 68 21 81 3
12 10 22 15 22 6 0 8 9 5 19 -3 11 1 28 8 38 7 10 25 56 40 103 15 47 45 131
66 187 22 56 39 109 39 118 0 8 4 15 8 15 9 0 32 92 57 230 9 47 20 101 25
120 20 73 33 223 39 445 4 152 11 237 19 252 28 51 10 56 -42 11z"/>
<path d="M12552 7400 c0 -14 2 -19 5 -12 2 6 2 18 0 25 -3 6 -5 1 -5 -13z"/>
<path d="M12460 6793 c0 -22 23 -86 34 -94 8 -6 5 -60 -10 -189 -5 -45 -3 -58
10 -69 9 -7 16 -24 16 -37 0 -13 5 -24 10 -24 6 0 11 -15 11 -32 1 -20 3 -25
6 -13 2 11 9 31 15 45 6 14 14 34 19 45 4 11 17 42 29 69 26 62 19 120 -22
191 -34 61 -55 85 -90 108 -26 16 -28 16 -28 0z"/>
<path d="M11260 6622 l-65 -3 35 -22 c20 -12 61 -41 92 -65 53 -40 58 -48 68
-100 23 -123 57 -276 75 -337 7 -22 4 68 -6 225 -9 134 -14 169 -29 185 -10
11 -25 34 -33 50 -13 26 -63 78 -70 73 -1 -1 -31 -4 -67 -6z"/>
<path d="M11584 5982 c-7 -4 -13 -16 -15 -26 -6 -30 -26 -30 -54 -2 -14 14
-29 26 -32 26 -3 0 -3 -26 1 -57 4 -32 12 -96 17 -143 22 -202 44 -363 69
-505 12 -66 25 -154 30 -195 18 -146 38 -258 51 -278 8 -13 32 -25 64 -33 27
-6 97 -22 155 -35 58 -14 115 -27 128 -29 24 -6 29 6 10 27 -7 7 -14 33 -15
58 -2 50 -6 78 -23 165 -17 91 -32 284 -25 342 5 53 32 123 47 123 4 0 8 4 8
9 0 9 31 45 85 101 45 46 35 53 -92 66 -55 5 -73 4 -73 -6 0 -8 -10 -10 -34
-6 -24 5 -44 1 -74 -15 -37 -20 -42 -20 -56 -6 -9 8 -19 17 -23 19 -8 3 -30
42 -92 163 -31 60 -37 82 -41 157 -4 62 -8 85 -16 80z"/>
<path d="M12451 5670 c1 -39 -18 -194 -28 -225 -3 -11 -10 -22 -14 -26 -9 -6
10 -70 25 -80 5 -4 -1 -10 -13 -14 -17 -5 -21 -13 -19 -41 1 -19 7 -34 14 -34
23 0 62 48 83 104 l21 57 -20 89 c-11 49 -20 103 -20 119 0 16 -7 42 -15 57
l-15 29 1 -35z"/>
<path d="M12650 5245 c0 -8 7 -15 15 -15 9 0 12 6 9 15 -4 8 -10 15 -15 15 -5
0 -9 -7 -9 -15z"/>
<path d="M12730 5230 c8 -5 38 -9 65 -9 37 0 45 3 30 9 -29 12 -114 12 -95 0z"/>
<path d="M13650 5065 c0 -8 5 -15 10 -15 6 0 10 7 10 15 0 8 -4 15 -10 15 -5
0 -10 -7 -10 -15z"/>
<path d="M13364 4946 c-24 -24 -40 -54 -82 -148 -17 -37 -44 -82 -61 -100 -17
-18 -51 -55 -76 -81 -43 -46 -45 -51 -45 -108 0 -32 -2 -59 -4 -59 -2 0 -27
12 -55 27 -48 24 -54 25 -92 13 -50 -17 -59 -30 -21 -30 16 0 44 -11 63 -25
46 -33 66 -41 117 -49 24 -3 48 -8 53 -12 13 -8 231 -32 244 -28 6 3 21 32 34
67 13 34 32 80 41 102 28 62 40 105 40 139 0 17 11 67 25 111 14 44 25 81 25
83 0 10 -36 -4 -84 -33 -65 -39 -92 -45 -81 -17 26 67 29 102 12 137 -19 40
-24 41 -53 11z"/>
<path d="M12781 4881 c-23 -32 -48 -138 -38 -163 7 -21 54 -29 68 -12 13 16
13 168 1 191 -8 13 -13 10 -31 -16z"/>
<path d="M13760 4798 c0 -25 -20 -100 -45 -166 -8 -24 -17 -63 -19 -87 -7 -70
-44 -176 -71 -201 -14 -13 -25 -32 -25 -42 0 -31 -48 -108 -85 -137 -59 -45
-151 -85 -194 -85 -48 0 -58 -13 -32 -39 31 -31 63 -35 127 -16 97 28 214 155
218 238 1 21 8 32 24 38 12 5 22 16 22 25 0 13 6 15 28 9 28 -8 91 -21 155
-31 36 -7 37 -6 37 26 0 18 -14 78 -31 134 -18 56 -38 137 -45 181 -20 119
-36 175 -51 175 -7 0 -13 -10 -13 -22z m-60 -422 c0 -3 -4 -8 -10 -11 -5 -3
-10 -1 -10 4 0 6 5 11 10 11 6 0 10 -2 10 -4z"/>
<path d="M12964 4706 c-24 -23 -44 -84 -44 -133 0 -42 29 -45 52 -5 17 29 35
163 21 161 -4 -1 -18 -11 -29 -23z"/>
<path d="M12786 4544 c-9 -23 -8 -24 14 -24 24 0 25 6 6 25 -12 12 -15 12 -20
-1z"/>
<path d="M15650 4516 c0 -11 68 -112 84 -125 36 -30 34 -1 -4 52 -35 48 -80
90 -80 73z"/>
<path d="M12800 4494 c0 -8 5 -12 10 -9 6 3 10 10 10 16 0 5 -4 9 -10 9 -5 0
-10 -7 -10 -16z"/>
<path d="M12770 4490 c-8 -5 -11 -12 -7 -16 4 -4 13 -2 19 4 15 15 7 24 -12
12z"/>
<path d="M10795 4301 c-11 -5 -47 -11 -80 -15 -77 -10 -216 -44 -234 -59 -7
-6 -55 -13 -105 -14 -50 -2 -115 -8 -143 -14 -58 -11 -195 0 -311 27 -80 18
-122 17 -146 -1 -11 -8 -30 -15 -42 -15 -21 0 -55 -13 -155 -58 -86 -39 -150
-62 -174 -62 -13 0 -30 -6 -36 -13 -10 -10 -22 -11 -50 -3 -32 8 -45 6 -81
-12 -24 -12 -61 -24 -83 -28 -22 -4 -56 -15 -75 -25 -19 -11 -43 -19 -54 -19
-10 0 -37 -8 -60 -19 -91 -42 -178 -71 -211 -71 -18 0 -36 -4 -39 -9 -4 -5
-25 -12 -49 -16 -77 -13 -161 -37 -217 -63 -176 -81 -381 -151 -444 -152 -30
0 -154 -40 -220 -70 -89 -40 -229 -94 -326 -125 -47 -15 -94 -31 -105 -36 -42
-18 -112 -42 -170 -58 -33 -9 -62 -18 -65 -21 -8 -9 -78 -29 -140 -40 -144
-26 -175 -33 -180 -39 -3 -4 -41 -17 -85 -29 -81 -24 -115 -44 -115 -68 0 -40
62 -26 400 86 62 21 126 38 285 76 61 14 146 37 190 51 85 27 98 30 215 61 41
11 100 29 132 41 31 11 100 30 155 42 54 11 107 27 119 34 11 7 43 16 70 20
27 4 83 15 124 26 41 10 86 21 100 24 14 4 34 11 45 15 34 15 99 30 130 30 17
0 49 9 70 21 22 11 65 23 95 25 80 8 180 35 180 50 0 9 28 12 115 11 113 -2
115 -2 138 25 30 36 58 48 134 59 36 5 130 32 209 59 79 27 151 47 159 44 20
-8 19 -42 -4 -90 -10 -21 -29 -70 -42 -109 -12 -38 -35 -87 -51 -107 -15 -20
-28 -41 -28 -47 0 -6 21 -7 53 -4 41 4 62 1 99 -17 69 -32 83 -89 53 -214 -8
-33 -12 -63 -9 -68 11 -17 81 -8 115 15 28 19 34 29 33 58 -4 96 -19 143 -51
164 -23 16 -24 17 -8 41 11 17 15 42 13 82 -3 56 -4 57 -43 76 -64 29 -75 43
-75 97 0 73 44 97 116 63 32 -15 34 -19 34 -65 0 -35 4 -49 14 -49 20 0 66
-65 66 -94 0 -16 6 -26 14 -26 13 0 127 88 227 174 19 17 53 45 74 61 22 17
53 42 70 56 73 62 294 204 373 241 93 42 122 63 122 85 0 15 -6 15 -35 4z"/>
<path d="M15756 4298 c18 -33 57 -79 61 -74 8 7 -47 86 -59 86 -5 0 -6 -6 -2
-12z"/>
<path d="M12776 4273 c-9 -10 -7 -63 3 -63 11 0 20 59 11 65 -4 3 -10 2 -14
-2z"/>
<path d="M11309 4242 c-38 -38 -69 -93 -69 -120 0 -13 -5 -33 -11 -44 -10 -18
-6 -25 27 -55 44 -38 102 -66 121 -59 18 7 6 65 -20 93 l-20 22 25 43 c31 55
31 100 -1 127 -13 12 -24 21 -25 21 -1 0 -13 -13 -27 -28z m11 -92 c-6 -11
-13 -20 -16 -20 -2 0 0 9 6 20 6 11 13 20 16 20 2 0 0 -9 -6 -20z"/>
<path d="M11550 4255 c0 -7 87 -45 102 -44 7 0 -9 11 -37 24 -51 24 -65 29
-65 20z"/>
<path d="M14510 4228 c0 -18 7 -44 16 -56 8 -12 13 -26 9 -32 -3 -5 1 -24 8
-42 8 -18 12 -39 9 -46 -8 -25 8 -62 27 -62 16 0 171 -51 224 -75 37 -16 15
14 -33 45 -27 18 -50 35 -50 39 0 3 -18 17 -40 31 -22 14 -40 28 -40 33 0 4
-10 21 -21 37 -17 22 -20 36 -15 64 5 28 4 36 -8 36 -8 0 -17 9 -21 19 -3 10
-13 22 -23 25 -9 3 -23 9 -29 12 -9 4 -13 -5 -13 -28z"/>
<path d="M14652 4240 c-32 -30 -27 -34 8 -8 17 12 30 23 30 25 0 9 -19 1 -38
-17z"/>
<path d="M12748 4136 c-33 -41 -34 -46 -9 -46 27 0 51 27 51 56 0 33 -10 30
-42 -10z"/>
<path d="M11713 4130 c20 -11 44 -20 54 -20 16 0 64 -13 111 -31 12 -5 22 -5
22 0 0 10 -27 21 -119 51 -85 27 -119 27 -68 0z"/>
<path d="M11968 4035 c5 -26 17 -31 42 -15 13 8 11 11 -7 16 -13 4 -23 10 -23
15 0 5 -4 9 -9 9 -4 0 -6 -11 -3 -25z"/>
<path d="M13860 3994 c0 -17 22 -14 28 4 2 7 -3 12 -12 12 -9 0 -16 -7 -16
-16z"/>
<path d="M12328 3933 c7 -3 16 -2 19 1 4 3 -2 6 -13 5 -11 0 -14 -3 -6 -6z"/>
<path d="M12380 3906 c-5 -14 -15 -26 -22 -26 -14 0 -36 -54 -45 -107 -5 -33
-27 -44 -48 -24 -21 19 -73 21 -94 3 -23 -19 -21 -24 32 -70 31 -27 46 -32 87
-32 50 0 73 13 85 49 3 11 12 21 19 24 15 6 76 110 76 129 0 7 -18 28 -40 46
l-40 33 -10 -25z"/>
<path d="M13585 3917 c-4 -10 -5 -21 -1 -24 10 -10 18 4 13 24 -4 17 -4 17
-12 0z"/>
<path d="M9880 3655 c0 -8 9 -15 20 -15 11 0 20 7 20 15 0 8 -9 15 -20 15 -11
0 -20 -7 -20 -15z"/>
<path d="M16130 3619 c0 -13 31 -82 40 -89 6 -5 19 -31 99 -205 16 -33 50
-105 76 -160 26 -55 51 -111 55 -125 5 -14 18 -50 30 -80 12 -30 30 -76 39
-102 19 -55 37 -77 27 -33 -4 17 -11 53 -17 80 -5 28 -16 66 -24 86 -8 20 -12
39 -9 42 3 3 -6 29 -20 58 -14 29 -26 61 -26 71 0 10 -4 18 -8 18 -10 0 -52
81 -52 99 0 13 -75 158 -92 179 -6 7 -11 31 -11 54 0 44 -25 80 -75 105 -30
16 -32 16 -32 2z"/>
<path d="M9640 3341 c-19 -9 -36 -19 -38 -23 -2 -5 -12 -8 -22 -8 -19 0 -34
-25 -24 -41 7 -12 30 -12 52 0 9 6 28 12 42 15 14 3 33 11 42 18 16 12 16 14
0 34 -16 21 -18 21 -52 5z"/>
<path d="M15301 2959 c-22 -18 -22 -19 -3 -19 11 0 23 7 26 16 9 24 4 25 -23
3z"/>
<path d="M4640 2902 c0 -5 -53 -12 -117 -15 -74 -4 -119 -11 -124 -19 -6 -9
-11 -8 -24 2 -10 8 -34 15 -54 15 -20 1 -45 4 -57 8 -15 5 -28 0 -47 -17 -34
-31 -34 -54 -2 -62 14 -3 25 -11 25 -18 0 -19 138 -46 232 -46 76 0 90 3 115
24 15 13 43 31 61 40 18 9 36 24 39 32 3 7 11 14 19 14 12 0 34 29 34 44 0 3
-22 6 -50 6 -27 0 -50 -4 -50 -8z"/>
<path d="M8820 2813 c0 -6 18 -18 40 -28 41 -19 49 -32 28 -53 -20 -20 4 -14
39 11 40 27 46 67 9 67 -13 0 -44 3 -70 6 -28 4 -46 3 -46 -3z"/>
<path d="M16506 2753 c11 -45 24 -76 30 -70 8 7 -15 85 -27 92 -6 4 -7 -3 -3
-22z"/>
<path d="M1840 2420 c0 -38 2 -40 30 -40 28 0 30 2 30 40 0 38 -2 40 -30 40
-28 0 -30 -2 -30 -40z"/>
<path d="M16594 2369 c3 -34 6 -74 7 -88 0 -18 5 -10 14 24 11 38 11 59 3 88
-18 59 -32 45 -24 -24z"/>
<path d="M6374 2266 c7 -77 22 -126 38 -126 4 0 7 -12 6 -27 -1 -25 69 -233
122 -363 11 -25 37 -94 60 -155 22 -60 47 -115 56 -121 15 -12 31 -9 149 26
17 5 71 20 120 34 160 45 165 47 180 82 10 25 52 57 189 149 l177 117 -7 33
c-6 32 -4 34 56 69 33 20 63 36 66 36 13 0 374 229 374 237 0 11 -116 -10
-130 -22 -9 -8 -36 -16 -60 -19 -25 -3 -67 -10 -95 -16 -57 -12 -287 -7 -325
8 -14 5 -57 10 -96 11 -39 0 -95 5 -124 11 -29 5 -76 10 -104 10 -29 0 -78 7
-109 15 -32 8 -77 15 -100 15 -23 0 -67 7 -97 15 -30 8 -97 15 -147 15 -51 0
-93 4 -93 9 0 4 -15 11 -32 14 -18 4 -44 9 -57 13 l-24 7 7 -77z"/>
<path d="M1812 2253 c-7 -22 -4 -37 12 -70 24 -49 36 -52 71 -18 19 20 25 36
25 70 l0 45 -49 0 c-45 0 -50 -2 -59 -27z"/>
<path d="M2000 2235 c0 -8 -7 -15 -15 -15 -11 0 -15 -11 -15 -40 0 -36 -2 -40
-25 -40 -22 0 -25 -4 -25 -40 l0 -40 55 0 55 0 0 40 0 40 40 0 40 0 0 40 c0
40 0 40 -39 40 -25 0 -41 5 -45 15 -3 8 -10 15 -16 15 -5 0 -10 -7 -10 -15z"/>
<path d="M20085 2226 c-16 -8 -58 -36 -91 -64 -34 -27 -82 -59 -108 -70 -25
-12 -46 -25 -46 -29 0 -5 22 -16 49 -26 31 -11 58 -29 71 -47 22 -31 50 -38
92 -21 13 5 43 15 66 22 43 13 44 13 37 48 -4 20 -8 72 -9 116 -1 88 -7 95
-61 71z"/>
<path d="M16446 2045 c-49 -33 -90 -75 -74 -75 26 0 137 53 143 68 5 14 -9 31
-26 32 -3 0 -23 -11 -43 -25z"/>
<path d="M9868 1973 c7 -3 16 -2 19 1 4 3 -2 6 -13 5 -11 0 -14 -3 -6 -6z"/>
<path d="M19585 1967 c-45 -26 -62 -43 -69 -67 -4 -14 -14 -42 -23 -62 -15
-35 -14 -39 5 -70 19 -30 19 -36 6 -68 -8 -19 -30 -49 -49 -66 -30 -27 -35
-38 -35 -75 1 -75 14 -83 133 -81 165 3 347 32 380 60 16 14 16 18 4 27 -15
10 -21 28 -18 50 0 6 15 25 31 43 17 18 30 39 30 47 0 27 -68 37 -120 18 -8
-4 -18 -5 -22 -5 -13 3 -9 -10 8 -29 15 -16 15 -20 1 -34 -9 -8 -20 -15 -26
-15 -6 0 -11 -7 -11 -15 0 -18 -51 -21 -81 -4 -17 8 -18 13 -8 25 9 11 9 18 1
26 -15 15 -16 48 -2 48 6 0 10 11 10 25 0 28 30 45 80 45 16 0 30 6 33 13 10
30 -8 47 -76 73 -42 16 -88 43 -113 66 -23 21 -43 38 -45 37 -2 -1 -13 -6 -24
-12z"/>
<path d="M11441 1654 c0 -11 3 -14 6 -6 3 7 2 16 -1 19 -3 4 -6 -2 -5 -13z"/>
<path d="M18896 1514 c-8 -7 -16 -11 -19 -8 -3 4 -16 -4 -29 -16 -13 -12 -34
-27 -48 -33 l-25 -11 29 -4 c16 -2 32 1 35 7 4 6 23 17 42 25 20 8 41 22 48
30 7 9 17 13 22 10 5 -3 9 -1 9 4 0 14 -49 11 -64 -4z"/>
<path d="M9220 993 c14 -3 29 -9 35 -14 5 -5 31 -9 58 -9 43 0 47 2 33 15 -10
11 -34 15 -83 14 -37 -1 -57 -4 -43 -6z"/>
<path d="M17977 993 c-15 -2 -25 -9 -22 -14 4 -5 -1 -9 -10 -9 -9 0 -30 -10
-47 -21 -16 -12 -48 -31 -71 -43 -54 -28 -79 -43 -145 -88 -31 -21 -61 -38
-69 -38 -7 0 -13 -3 -13 -8 0 -4 -26 -23 -57 -41 -32 -19 -60 -37 -63 -40 -11
-13 -101 -71 -110 -71 -6 0 -10 -3 -10 -7 0 -5 -17 -19 -38 -33 -20 -14 -41
-31 -47 -38 -11 -14 -113 -69 -255 -138 -52 -26 -114 -59 -137 -75 -23 -16
-44 -29 -48 -29 -8 0 -143 -101 -175 -132 -38 -35 -101 -82 -135 -98 -16 -8
-52 -27 -80 -42 l-50 -28 296 0 297 0 12 30 c7 16 19 30 26 30 8 0 14 4 14 10
0 5 13 16 28 24 15 8 46 30 68 50 21 20 43 36 47 36 4 0 17 9 29 20 12 11 30
20 40 20 21 0 139 75 151 96 4 8 14 14 22 14 7 0 15 3 17 8 4 8 66 42 78 42 5
0 26 18 48 40 21 22 47 40 56 40 9 0 35 18 57 40 22 22 47 40 54 40 8 0 19 9
25 19 5 11 26 25 45 31 19 6 35 17 35 24 0 13 51 46 72 46 8 0 23 9 33 20 10
11 25 20 33 20 7 0 27 9 43 20 15 12 42 26 59 32 18 6 29 16 26 23 -5 15 13
35 32 35 7 0 26 12 42 28 44 43 74 67 82 64 4 -1 12 7 18 18 6 11 7 20 3 20
-4 0 -1 5 7 10 8 5 22 7 32 4 9 -3 22 3 30 14 7 11 22 22 33 25 24 6 -368 6
-408 0z"/>
<path d="M12320 900 c0 -29 4 -40 15 -40 11 0 15 11 15 40 0 29 -4 40 -15 40
-11 0 -15 -11 -15 -40z"/>
<path d="M12610 820 c0 -29 4 -40 15 -40 11 0 15 11 15 40 0 29 -4 40 -15 40
-11 0 -15 -11 -15 -40z"/>
<path d="M19415 650 c-3 -5 1 -13 9 -16 9 -3 16 -12 16 -20 0 -10 12 -14 40
-14 47 0 52 14 13 33 -44 23 -71 29 -78 17z"/>
<path d="M19280 600 c0 -6 -18 -17 -40 -26 -22 -9 -40 -20 -40 -25 0 -5 -9 -9
-20 -9 -11 0 -20 -6 -20 -14 0 -20 -32 -45 -37 -28 -6 15 -47 16 -75 1 -19
-10 -19 -11 7 -25 15 -8 36 -14 46 -14 11 0 19 -6 19 -14 0 -16 58 -30 86 -20
11 4 30 19 43 33 16 17 25 22 28 14 7 -20 23 -15 45 12 25 32 38 32 38 0 0
-18 10 -31 33 -45 40 -25 47 -25 47 0 0 13 7 20 20 20 11 0 20 4 20 10 0 5 -9
15 -20 22 -22 14 -27 44 -7 51 6 2 -10 2 -38 0 -46 -4 -53 -2 -89 31 -42 39
-46 41 -46 26z"/>
<path d="M19690 525 c-18 -21 2 -65 30 -65 22 0 27 28 10 61 -13 23 -23 24
-40 4z"/>
<path d="M18968 453 c7 -3 16 -2 19 1 4 3 -2 6 -13 5 -11 0 -14 -3 -6 -6z"/>
<path d="M19040 446 c0 -9 7 -16 16 -16 9 0 14 5 12 12 -6 18 -28 21 -28 4z"/>
<path d="M19340 451 c0 -6 5 -13 10 -16 6 -3 10 1 10 9 0 9 -4 16 -10 16 -5 0
-10 -4 -10 -9z"/>
<path d="M19307 413 c-14 -13 -6 -33 13 -33 13 0 20 7 20 20 0 19 -20 27 -33
13z"/>
<path d="M19440 365 c0 -11 11 -15 40 -15 29 0 40 4 40 15 0 11 -11 15 -40 15
-29 0 -40 -4 -40 -15z"/>
<path d="M19864 361 c-21 -13 -36 -16 -47 -10 -17 10 -32 -4 -23 -20 8 -13 52
-19 69 -10 9 6 19 3 27 -6 7 -8 21 -15 31 -15 10 0 21 -9 24 -20 9 -28 37 -26
34 3 -2 12 0 28 5 36 11 18 -20 47 -59 55 -20 4 -40 0 -61 -13z"/>
<path d="M19920 224 c0 -8 5 -12 10 -9 6 3 10 10 10 16 0 5 -4 9 -10 9 -5 0
-10 -7 -10 -16z"/>
<path d="M18700 150 c0 -5 -13 -10 -30 -10 -18 0 -30 -5 -30 -13 0 -22 -92
-58 -128 -51 -18 4 -32 13 -32 20 0 16 -46 19 -55 4 -4 -6 5 -10 20 -10 20 0
26 -4 21 -15 -3 -8 0 -15 7 -16 7 0 3 -4 -8 -9 -11 -4 -33 -14 -50 -21 -16 -7
-33 -12 -37 -11 -5 1 -8 -3 -8 -8 0 -6 105 -10 295 -10 164 0 295 4 295 9 0 5
-21 14 -46 20 -31 8 -48 18 -51 31 -7 25 -28 32 -58 18 -22 -10 -29 -8 -49 11
-13 13 -27 34 -30 47 -6 23 -26 34 -26 14z"/>
<path d="M18380 70 c-13 -8 -12 -10 3 -10 9 0 17 5 17 10 0 12 -1 12 -20 0z"/>
<path d="M19140 10 c0 -5 7 -10 16 -10 8 0 12 5 9 10 -3 6 -10 10 -16 10 -5 0
-9 -4 -9 -10z"/>
</g>
</svg>
