<?xml version="1.0" standalone="no"?>
<!DOCTYPE svg PUBLIC "-//W3C//DTD SVG 20010904//EN"
 "http://www.w3.org/TR/2001/REC-SVG-20010904/DTD/svg10.dtd">
<svg version="1.0" xmlns="http://www.w3.org/2000/svg"
 width="500.000000pt" height="500.000000pt" viewBox="0 0 500.000000 500.000000"
 preserveAspectRatio="xMidYMid meet">

<g transform="translate(0.000000,500.000000) scale(0.100000,-0.100000)"
fill="#000000" stroke="none">
<path d="M1939 3983 c18 -36 14 -52 -11 -46 -18 4 -16 1 9 -15 28 -18 53 -50
53 -66 0 -3 -25 4 -55 14 -30 10 -55 17 -55 14 0 -2 29 -17 63 -34 41 -19 68
-39 75 -55 14 -31 10 -31 -73 0 -37 14 -69 24 -71 22 -3 -2 30 -19 71 -37 48
-21 83 -44 96 -62 12 -16 19 -31 17 -33 -2 -3 -44 11 -92 31 -48 20 -89 34
-92 32 -2 -2 44 -26 102 -53 58 -26 109 -56 115 -67 13 -25 3 -23 -83 11 -87
34 -132 46 -124 32 4 -5 49 -24 102 -41 95 -32 172 -79 129 -80 -11 0 -55 12
-99 25 -43 14 -81 23 -84 21 -7 -8 41 -25 127 -47 94 -24 101 -24 101 5 0 13
14 54 31 92 65 142 62 152 -8 27 -39 -73 -49 -84 -51 -63 -2 14 13 67 33 117
48 126 44 135 -10 24 -43 -87 -65 -107 -65 -58 0 13 16 55 35 96 50 103 43
113 -9 12 l-43 -84 -11 30 c-11 32 -10 35 45 146 26 52 4 26 -28 -33 -17 -33
-35 -57 -40 -55 -20 13 -20 65 1 105 29 56 19 62 -13 8 l-25 -43 -12 30 c-6
16 -8 41 -5 55 5 20 4 23 -7 12 -10 -10 -16 -8 -31 10 -18 22 -18 22 -8 1z"/>
<path d="M3025 3960 c-8 -25 -20 -26 -35 -2 -10 14 -10 13 -6 -9 6 -29 -11
-92 -24 -84 -4 2 -13 26 -20 52 -8 26 -15 42 -18 35 -2 -7 4 -34 13 -62 14
-41 15 -56 5 -86 -15 -44 -21 -38 -50 49 -29 89 -36 81 -9 -10 21 -70 21 -143
-1 -143 -5 0 -20 38 -35 85 -14 46 -29 86 -34 89 -5 4 -3 -15 5 -42 30 -98 47
-181 40 -198 -10 -26 -20 -9 -57 101 -19 55 -35 91 -37 81 -2 -10 10 -55 26
-100 42 -113 45 -123 33 -143 -9 -15 -13 -12 -28 27 -27 67 -74 159 -67 130 3
-14 19 -55 35 -91 15 -36 33 -78 39 -93 10 -27 11 -27 34 -13 13 9 61 26 107
37 46 12 89 26 94 32 7 7 4 9 -10 5 -60 -16 -156 -30 -162 -24 -12 13 10 24
112 57 132 43 142 55 20 24 -54 -14 -99 -23 -102 -20 -3 2 0 13 6 24 7 14 37
26 103 43 51 13 84 25 73 26 -11 2 -50 -5 -87 -15 -55 -16 -68 -17 -68 -6 0
25 38 48 108 66 62 16 38 18 -35 2 -23 -4 -33 -3 -33 5 0 24 49 61 89 67 23 4
41 10 41 14 0 4 -19 4 -42 0 -24 -5 -45 -6 -47 -4 -9 9 23 54 42 60 18 6 18 7
4 15 -9 5 -14 16 -11 24 4 8 4 15 1 15 -3 0 -9 -9 -12 -20z"/>
<path d="M3285 3919 c-8 -47 9 -73 65 -96 19 -9 41 -24 48 -34 7 -10 18 -19
25 -19 6 0 -9 21 -34 48 -57 60 -83 99 -67 104 16 6 2 38 -16 38 -9 0 -17 -15
-21 -41z"/>
<path d="M2483 3877 c4 -28 -7 -45 -18 -27 -3 5 -11 10 -16 10 -6 0 -1 -12 10
-26 20 -25 29 -74 14 -74 -4 0 -24 17 -45 37 -21 20 -38 33 -38 27 0 -5 20
-30 45 -54 36 -36 45 -51 45 -79 l0 -35 -60 59 c-33 33 -60 55 -60 49 0 -5 21
-30 46 -54 42 -41 74 -93 74 -120 0 -24 -30 -7 -69 40 -23 27 -52 55 -64 61
-11 7 14 -27 56 -75 44 -50 77 -95 77 -107 0 -25 0 -26 -97 67 -99 95 -91 67
10 -33 50 -50 87 -95 87 -106 0 -22 -3 -20 -109 71 -28 24 -51 39 -51 33 0
-12 164 -151 179 -151 6 0 11 6 11 14 0 8 34 45 75 82 82 74 103 109 28 46
-122 -100 -143 -86 -32 23 87 86 111 125 39 65 -29 -25 -64 -55 -79 -67 -32
-27 -41 -28 -41 -5 0 9 34 50 77 90 89 84 87 98 -4 17 -33 -30 -64 -55 -67
-55 -3 0 -6 11 -6 24 0 24 30 59 88 103 17 14 32 30 32 35 0 5 -22 -9 -48 -31
-51 -44 -72 -51 -72 -25 0 25 21 57 59 91 43 38 38 43 -9 8 -19 -14 -38 -25
-42 -25 -14 0 -9 44 8 68 10 15 11 22 3 22 -6 0 -18 8 -26 18 -13 15 -14 15
-10 -11z"/>
<path d="M1447 3680 l-8 -55 -25 28 c-13 15 -24 38 -24 50 0 18 -2 19 -10 7
-7 -12 -12 -12 -22 -2 -22 22 -32 12 -10 -11 28 -29 28 -37 0 -38 -21 -1 -21
-2 -3 -6 40 -9 74 -25 79 -39 4 -11 -7 -14 -52 -15 l-57 -2 65 -7 c67 -6 129
-35 112 -52 -6 -6 -41 -8 -80 -6 -39 1 -68 0 -65 -4 2 -5 33 -8 68 -8 35 0 76
-5 92 -12 15 -6 30 -11 33 -10 3 0 6 -8 7 -18 2 -18 -5 -19 -95 -15 -74 3 -87
2 -52 -5 25 -5 68 -9 96 -9 55 -1 114 -17 114 -32 0 -5 -50 -9 -111 -9 -72 0
-108 -4 -104 -10 4 -6 53 -10 120 -9 75 0 121 -4 137 -12 22 -13 22 -13 -17
-20 -22 -5 -71 -8 -109 -8 -38 -1 -66 -4 -62 -8 7 -7 173 -3 224 6 4 1 8 58 8
129 2 142 0 144 -19 22 -7 -47 -17 -84 -22 -83 -6 2 -12 58 -15 125 l-5 123
-9 -98 c-4 -53 -12 -99 -16 -102 -4 -3 -13 2 -20 10 -9 11 -11 43 -7 118 3 59
2 92 -3 77 -4 -14 -9 -45 -9 -70 -1 -25 -4 -55 -7 -68 -6 -22 -7 -22 -26 -5
-17 15 -19 27 -14 103 l5 85 -11 -67 c-6 -38 -13 -68 -17 -68 -25 1 -36 25
-41 87 l-5 68 -8 -55z"/>
<path d="M3466 3669 c-3 -17 -6 -48 -6 -68 0 -39 -29 -102 -49 -109 -10 -3
-12 17 -7 94 l5 99 -18 -110 c-21 -120 -28 -145 -43 -145 -7 0 -9 37 -4 111 4
66 4 109 -2 105 -5 -3 -12 -53 -15 -112 -4 -78 -11 -113 -24 -132 -18 -27 -18
-27 -24 78 l-5 105 -2 -116 -2 -116 88 -7 c48 -3 103 -9 122 -12 58 -9 13 12
-55 26 -33 6 -69 14 -79 17 -18 5 -18 6 -1 15 16 10 162 4 225 -8 18 -4 21 -3
10 4 -13 8 -40 13 -158 28 -33 4 -38 12 -19 31 14 15 25 15 100 3 46 -7 90
-11 98 -8 8 3 -25 11 -73 18 -49 7 -88 16 -88 20 0 4 11 13 25 20 20 10 38 11
96 1 88 -14 104 -7 20 10 -34 6 -64 15 -67 20 -2 4 7 16 20 25 19 12 39 15 78
10 l53 -5 -42 12 c-23 7 -45 15 -48 19 -9 9 49 38 77 38 21 1 21 2 5 11 -18
10 -18 11 0 32 20 22 2 16 -29 -11 -17 -14 -18 -13 -19 14 0 16 -3 22 -6 14
-17 -46 -36 -79 -50 -84 -14 -6 -15 1 -10 44 3 27 2 50 -2 50 -5 0 -11 -27
-14 -61 -3 -37 -12 -68 -23 -80 -31 -34 -37 -23 -30 61 8 81 4 105 -8 49z"/>
<path d="M3042 3475 c-111 -40 -178 -81 -232 -142 -45 -52 -80 -136 -80 -195
0 -24 -9 -55 -21 -74 -11 -19 -16 -34 -11 -34 5 0 14 11 20 25 11 23 17 25 74
24 154 -3 289 126 334 317 8 37 14 77 12 89 l-3 23 -93 -33z m0 -92 c-55 -64
-250 -255 -273 -268 -8 -4 60 67 151 159 91 91 166 166 168 166 2 0 -18 -26
-46 -57z"/>
<path d="M1830 3476 c0 -24 49 -165 76 -217 14 -28 44 -71 67 -96 57 -62 110
-87 207 -100 25 -3 54 -14 66 -24 11 -10 27 -19 35 -19 8 0 1 8 -16 18 -29 18
-30 20 -27 89 4 88 -16 141 -84 213 -59 63 -128 103 -224 129 -88 25 -100 26
-100 7z m210 -188 c36 -41 89 -103 119 -139 l54 -64 -69 70 c-136 139 -261
282 -214 244 25 -20 74 -70 110 -111z"/>
<path d="M1694 3236 c-11 -28 4 -46 38 -46 53 0 100 -31 128 -86 25 -48 25
-53 25 -279 1 -191 4 -240 19 -290 40 -134 126 -233 243 -280 62 -24 168 -47
178 -37 3 3 5 45 5 93 l0 87 -42 7 c-110 18 -191 81 -223 174 -10 29 -20 107
-25 210 -13 224 -41 322 -112 388 -34 32 -107 61 -171 69 -47 6 -58 4 -63 -10z"/>
<path d="M2350 3235 c-17 -20 3 -45 36 -45 l24 0 0 -690 0 -690 -24 0 c-33 0
-53 -25 -36 -45 10 -12 40 -15 150 -15 110 0 140 3 150 15 17 20 -3 45 -36 45
l-24 0 0 690 0 690 24 0 c33 0 53 25 36 45 -10 12 -40 15 -150 15 -110 0 -140
-3 -150 -15z"/>
<path d="M3197 3238 c-163 -35 -237 -181 -237 -469 0 -95 -14 -171 -41 -224
-40 -78 -80 -107 -184 -135 l-60 -16 0 -89 0 -90 35 3 c56 5 161 41 212 73 88
56 139 129 174 244 15 50 18 99 19 290 0 219 2 232 24 277 27 56 57 78 120 87
41 5 46 9 46 31 0 22 -5 25 -35 26 -19 0 -52 -3 -73 -8z"/>
<path d="M3483 3215 c-122 -27 -213 -97 -250 -194 -10 -25 -29 -56 -43 -69
l-25 -23 27 16 c26 16 29 16 63 -5 30 -19 47 -22 108 -18 98 4 186 47 257 125
51 56 110 147 110 171 0 17 -165 15 -247 -3z m112 -77 c-75 -44 -326 -160
-333 -154 -2 2 50 29 115 60 65 31 152 74 193 95 99 52 113 51 25 -1z"/>
<path d="M1238 3214 c-26 -8 -23 -20 26 -88 122 -171 279 -253 410 -212 33 10
55 12 67 6 10 -6 28 -10 41 -9 16 1 12 4 -14 11 -34 9 -38 14 -38 41 0 40 -49
126 -92 162 -18 16 -62 42 -98 59 -59 28 -75 31 -175 33 -60 1 -118 -1 -127
-3z m174 -95 c53 -26 268 -151 268 -155 0 -10 -337 170 -358 191 -9 9 39 -10
90 -36z"/>
<path d="M1540 2836 c0 -2 32 -28 72 -58 59 -43 68 -54 51 -56 -12 -2 -57 17
-100 41 -43 24 -88 49 -100 56 -46 24 -20 2 62 -54 47 -31 83 -61 79 -66 -11
-18 -42 -8 -101 30 -73 47 -103 63 -103 56 0 -2 31 -26 70 -51 38 -26 67 -51
64 -55 -12 -20 -58 -7 -115 32 -33 22 -63 39 -65 36 -2 -2 21 -21 51 -41 31
-20 53 -41 50 -46 -11 -19 -70 -10 -107 15 -51 35 -60 31 -15 -6 51 -42 48
-53 -14 -47 -35 4 -47 2 -39 -6 7 -7 4 -14 -12 -23 -21 -12 -20 -13 16 -7 37
6 38 6 27 -15 -16 -29 -8 -26 27 9 17 17 38 30 46 30 20 0 21 1 -10 -54 -14
-25 -22 -46 -17 -46 4 1 22 24 38 53 26 46 78 88 91 74 3 -2 -11 -36 -31 -73
-38 -72 -26 -64 28 20 32 48 80 86 93 73 4 -4 -4 -24 -18 -45 -31 -46 -71
-123 -66 -127 2 -2 30 39 63 91 54 87 88 124 102 110 3 -3 -4 -20 -15 -38 -28
-46 -82 -154 -82 -164 0 -17 21 15 65 101 44 85 86 138 93 117 1 -5 -13 -44
-33 -87 -38 -83 -45 -124 -9 -53 76 152 83 178 48 178 -8 0 -50 23 -94 50 -77
48 -90 55 -90 46z"/>
<path d="M3385 2801 c-106 -35 -108 -37 -90 -65 9 -13 23 -63 31 -112 9 -49
17 -91 20 -93 6 -6 4 57 -5 117 -4 31 -4 55 2 59 14 9 25 -15 42 -92 24 -106
36 -147 41 -143 2 3 -3 42 -11 87 -9 46 -15 93 -13 104 l3 22 21 -21 c15 -15
25 -45 34 -103 7 -45 16 -83 20 -86 4 -2 3 17 -1 43 -4 26 -11 67 -15 91 -7
42 -6 43 14 32 30 -16 39 -36 47 -109 4 -34 12 -65 17 -68 6 -4 8 1 5 12 -13
45 -18 124 -9 124 22 0 62 -62 62 -95 0 -19 4 -36 10 -40 5 -3 7 14 3 47 l-6
53 24 -16 c13 -9 31 -29 39 -45 11 -23 15 -25 18 -11 4 20 7 21 35 5 20 -10
21 -10 9 5 -8 9 -23 19 -35 23 -20 6 -20 6 2 23 22 17 22 17 -12 13 -37 -4
-81 13 -72 28 3 4 22 11 43 15 20 3 44 11 52 16 16 11 -7 9 -81 -10 -26 -6
-46 -4 -70 6 -41 17 -31 25 54 44 32 7 61 17 64 22 4 6 0 8 -8 5 -47 -17 -152
-31 -176 -22 -45 15 -32 27 52 46 44 10 83 22 88 27 5 5 -31 0 -80 -10 -97
-21 -159 -24 -168 -9 -3 5 14 14 37 20 96 24 182 54 168 57 -8 2 -60 -9 -114
-25 -92 -26 -170 -32 -149 -11 5 5 47 22 94 38 46 16 75 29 64 29 -11 0 -56
-12 -100 -27z"/>
<path d="M2461 1602 c-12 -22 11 -62 34 -62 8 0 21 10 29 22 20 28 4 58 -29
58 -13 0 -29 -8 -34 -18z"/>
<path d="M1350 1570 c0 -7 170 -10 521 -10 321 0 518 4 514 9 -8 14 -1035 15
-1035 1z"/>
<path d="M2610 1570 c0 -7 169 -10 521 -10 315 0 518 4 514 9 -8 14 -1035 15
-1035 1z"/>
<path d="M2382 1488 c-23 -12 -58 -39 -79 -60 -30 -31 -35 -42 -27 -55 19 -31
35 -26 89 30 88 90 94 124 17 85z"/>
<path d="M2556 1501 c-7 -11 61 -99 100 -130 30 -24 42 -23 58 2 13 20 -26 65
-93 108 -49 31 -57 34 -65 20z"/>
<path d="M2480 1464 c-6 -16 -14 -60 -17 -98 -5 -59 -4 -71 12 -82 13 -9 23
-10 36 -3 22 11 25 56 9 140 -13 68 -26 81 -40 43z"/>
<path d="M1100 1010 c-42 -42 -15 -81 65 -95 78 -13 106 -49 63 -79 -41 -29
-126 -11 -142 30 -4 9 -9 15 -11 12 -11 -11 9 -39 36 -53 66 -34 149 -9 149
45 0 35 -8 40 -90 60 -55 14 -66 20 -68 40 -7 49 64 67 112 29 15 -12 29 -19
32 -16 3 2 -7 14 -22 26 -35 28 -97 28 -124 1z"/>
<path d="M1804 1011 c-42 -26 -60 -78 -44 -127 24 -73 137 -100 199 -48 17 14
31 32 31 41 0 9 -10 3 -26 -16 -65 -77 -194 -38 -194 59 0 93 111 133 176 63
13 -14 24 -23 24 -20 0 57 -103 87 -166 48z"/>
<path d="M2143 1011 c-39 -25 -53 -49 -53 -95 0 -98 149 -144 224 -69 21 20
26 35 26 72 0 39 -5 52 -30 76 -40 38 -119 46 -167 16z m155 -25 c37 -37 37
-96 -1 -133 -23 -24 -36 -28 -82 -28 -46 0 -59 4 -82 28 -49 48 -32 130 32
158 37 16 105 3 133 -25z"/>
<path d="M2768 1014 c-36 -19 -48 -43 -48 -96 1 -46 10 -64 50 -91 49 -34 138
-18 177 33 22 27 13 36 -10 9 -27 -32 -58 -49 -90 -49 -90 0 -141 74 -102 149
29 58 124 66 165 14 11 -14 23 -23 26 -20 4 3 -7 20 -24 37 -25 24 -39 30 -74
30 -24 -1 -55 -7 -70 -16z"/>
<path d="M3503 1020 c-28 -11 -63 -66 -63 -98 0 -64 57 -112 134 -112 49 0
106 37 106 68 0 12 -8 7 -26 -15 -62 -79 -194 -41 -194 55 0 51 30 89 76 98
41 7 90 -10 105 -38 12 -23 22 -18 13 6 -14 38 -98 57 -151 36z"/>
<path d="M870 921 c0 -81 3 -100 16 -105 26 -10 142 -7 149 4 4 6 -23 10 -75
10 l-81 0 3 43 3 42 75 6 75 5 -77 2 -78 2 0 40 0 39 83 4 82 3 -87 2 -88 2 0
-99z"/>
<path d="M1302 913 c1 -60 3 -87 5 -60 l4 47 70 0 c56 0 73 4 89 20 24 24 25
48 4 78 -13 20 -24 22 -95 22 l-79 0 2 -107z m149 87 c23 -13 25 -53 3 -74
-11 -11 -35 -16 -80 -16 l-64 0 0 50 0 50 61 0 c33 0 69 -5 80 -10z"/>
<path d="M1570 948 c-18 -40 -39 -89 -47 -108 l-14 -35 20 25 c11 14 21 28 21
33 0 4 31 7 69 7 67 0 69 -1 81 -30 7 -16 16 -30 21 -30 8 0 -22 73 -66 161
-14 27 -31 49 -39 49 -7 0 -28 -33 -46 -72z m80 0 l30 -63 -56 -3 c-31 -2 -58
-1 -60 1 -4 4 48 127 54 127 1 0 16 -28 32 -62z"/>
<path d="M2990 920 c0 -60 4 -100 10 -100 6 0 10 21 10 46 l0 45 63 -3 c74 -3
117 17 117 56 0 42 -29 56 -118 56 l-82 0 0 -100z m177 63 c13 -19 12 -24 -6
-42 -17 -17 -34 -21 -86 -21 l-65 0 0 45 0 46 71 -3 c61 -3 74 -6 86 -25z"/>
<path d="M3240 915 l0 -105 85 0 c50 0 85 4 85 10 0 6 -31 10 -74 10 -81 0
-86 4 -78 62 4 26 7 27 76 31 l71 3 -72 2 -73 2 0 40 0 39 78 4 77 3 -87 2
-88 2 0 -105z"/>
<path d="M3720 915 l0 -105 78 0 c42 0 84 5 92 10 10 7 -11 10 -67 10 l-83 0
0 45 0 44 73 4 72 3 -72 2 -73 2 0 40 0 39 78 4 77 3 -87 2 -88 2 0 -105z"/>
<path d="M3930 915 c0 -63 4 -105 10 -105 6 0 10 23 10 50 l0 50 39 0 c58 0
71 -8 92 -56 13 -31 24 -44 39 -44 11 0 20 4 20 9 0 5 -7 8 -15 7 -9 0 -23 16
-35 41 -18 42 -18 42 1 48 33 11 45 49 25 80 -15 23 -21 25 -101 25 l-85 0 0
-105z m161 85 c25 -14 25 -56 0 -70 -11 -5 -47 -10 -80 -10 l-61 0 0 45 0 45
61 0 c33 0 69 -5 80 -10z"/>
<path d="M2030 915 c0 -57 4 -95 10 -95 6 0 10 38 10 95 0 57 -4 95 -10 95 -6
0 -10 -38 -10 -95z"/>
<path d="M2508 893 c18 -2 45 -2 60 0 15 2 0 4 -33 4 -33 0 -45 -2 -27 -4z"/>
<path d="M3135 879 c16 -55 53 -87 69 -60 4 5 -2 7 -13 4 -15 -4 -22 3 -31 31
-13 40 -37 63 -25 25z"/>
</g>
</svg>
