<?xml version="1.0" standalone="no"?>
<!DOCTYPE svg PUBLIC "-//W3C//DTD SVG 20010904//EN"
 "http://www.w3.org/TR/2001/REC-SVG-20010904/DTD/svg10.dtd">
<svg version="1.0" xmlns="http://www.w3.org/2000/svg"
 width="890.000000pt" height="600.000000pt" viewBox="0 0 890.000000 600.000000"
 preserveAspectRatio="xMidYMid meet">

<g transform="translate(0.000000,600.000000) scale(0.100000,-0.100000)"
fill="#000000" stroke="none">
<path d="M4210 5794 c-471 -59 -793 -159 -1135 -352 -594 -337 -1048 -881
-1275 -1527 -45 -129 -105 -379 -126 -530 -23 -159 -26 -587 -6 -730 70 -484
223 -879 487 -1260 319 -459 808 -837 1325 -1023 201 -72 318 -103 530 -139
142 -25 178 -27 435 -27 240 0 300 3 417 22 800 127 1487 566 1924 1228 437
662 571 1458 378 2238 -201 806 -788 1509 -1549 1854 -261 118 -481 182 -780
228 -96 15 -546 28 -625 18z m390 -1109 c214 -32 404 -128 554 -278 312 -312
382 -780 177 -1174 -142 -273 -409 -463 -725 -518 -414 -71 -846 146 -1040
525 -286 557 -10 1221 589 1414 138 44 291 55 445 31z m170 -2314 c597 -103
1102 -477 1376 -1020 30 -58 54 -113 54 -122 0 -34 -267 -248 -455 -364 -422
-261 -955 -393 -1448 -357 -587 42 -1078 248 -1519 636 l-86 77 30 66 c276
609 866 1032 1536 1103 128 13 378 4 512 -19z"/>
</g>
</svg>
